<?xml version="1.0" encoding="UTF-8" standalone="no"?>
<!-- Created with Inkscape (http://www.inkscape.org/) -->

<svg
   xmlns:dc="http://purl.org/dc/elements/1.1/"
   xmlns:cc="http://creativecommons.org/ns#"
   xmlns:rdf="http://www.w3.org/1999/02/22-rdf-syntax-ns#"
   xmlns:svg="http://www.w3.org/2000/svg"
   xmlns="http://www.w3.org/2000/svg"
   xmlns:sodipodi="http://sodipodi.sourceforge.net/DTD/sodipodi-0.dtd"
   xmlns:inkscape="http://www.inkscape.org/namespaces/inkscape"
   width="186.51003mm"
   height="64.820595mm"
   viewBox="0 0 660.86229 229.67927"
   id="svg4136"
   version="1.1"
   inkscape:version="0.91 r13725"
   sodipodi:docname="bananenheuschreckenrennen-logo.svg">
  <defs
     id="defs4138" />
  <sodipodi:namedview
     id="base"
     pagecolor="#ffffff"
     bordercolor="#666666"
     borderopacity="1.0"
     inkscape:pageopacity="0.0"
     inkscape:pageshadow="2"
     inkscape:zoom="0.35"
     inkscape:cx="419.90505"
     inkscape:cy="-447.20987"
     inkscape:document-units="px"
     inkscape:current-layer="layer1"
     showgrid="false"
     fit-margin-top="0"
     fit-margin-left="0"
     fit-margin-right="0"
     fit-margin-bottom="0"
     inkscape:window-width="1920"
     inkscape:window-height="1017"
     inkscape:window-x="-8"
     inkscape:window-y="-8"
     inkscape:window-maximized="1" />
  <metadata
     id="metadata4141">
    <rdf:RDF>
      <cc:Work
         rdf:about="">
        <dc:format>image/svg+xml</dc:format>
        <dc:type
           rdf:resource="http://purl.org/dc/dcmitype/StillImage" />
        <dc:title></dc:title>
      </cc:Work>
    </rdf:RDF>
  </metadata>
  <g
     inkscape:label="Ebene 1"
     inkscape:groupmode="layer"
     id="layer1"
     transform="translate(-32.406315,-92.805281)">
    <path
       style="fill:#000000"
       d="m 687.91719,321.97309 c -0.57198,-0.35105 -1.65198,-1.28599 -2.4,-2.07766 -1.04367,-1.10458 -1.74381,-1.54836 -3.01002,-1.90782 -1.94796,-0.55302 -6.48054,-1.00492 -12.82161,-1.27834 -4.88679,-0.21071 -5.14917,-0.1335 -4.12845,1.21496 0.65436,0.86448 0.29364,1.0808 -1.80228,1.0808 -1.89486,0 -8.4366,-0.74902 -9.59766,-1.09892 -0.58827,-0.17728 -0.58902,-0.16852 -0.0386,0.44788 0.32901,0.36847 0.48204,0.83544 0.36972,1.12818 -0.21276,0.55443 -1.26675,0.53767 -11.92836,-0.18974 -5.06988,-0.3459 -8.31207,-0.23875 -15.85659,0.52403 -1.06476,0.10765 -1.52712,6e-4 -2.16543,-0.50152 -1.63818,-1.2886 -5.82609,-8.35194 -14.32458,-24.15991 -5.86899,-10.91687 -9.55152,-17.46267 -14.26143,-25.35 -4.85598,-8.13195 -6.06444,-10.24915 -9.24663,-16.2 -1.10292,-2.0625 -2.3208,-4.14549 -2.70642,-4.62887 l -0.7011,-0.87887 -0.7203,0.69235 c -1.44822,1.39208 -7.69611,6.27021 -10.47027,8.17482 -8.50029,5.83592 -16.26183,9.38884 -26.42982,12.09852 -2.84088,0.75707 -5.63514,1.61755 -6.20943,1.91219 l -1.04418,0.5357 1.01673,0.76783 c 0.55917,0.42231 1.92168,1.26245 3.02781,1.86697 2.39943,1.31139 2.78901,2.05317 1.61061,3.06679 -0.9429,0.81105 -1.37385,0.84381 -3.33504,0.25357 -0.80229,-0.24145 -1.51701,-0.38066 -1.58832,-0.30936 -0.34428,0.34427 1.14624,1.85806 3.9942,4.05661 2.9253,2.25825 4.35744,3.64218 4.35744,4.21078 0,0.7522 -1.04595,1.18097 -2.88084,1.18097 -2.271,0 -2.5992,0.36787 -1.66599,1.86739 0.68568,1.10181 2.84664,3.23291 4.77693,4.71093 1.47558,1.12985 1.94955,1.86502 1.67079,2.59146 -0.17307,0.45102 -0.51669,0.49055 -2.83389,0.32607 -1.66518,-0.11819 -2.70633,-0.0749 -2.82522,0.11746 -0.30789,0.49816 1.31007,2.94638 2.27793,3.44688 1.27677,0.66025 4.65966,0.97968 14.08029,1.32956 8.36442,0.31065 12.8643,0.70949 13.82886,1.2257 0.87921,0.47053 3.03297,0.32543 6.62214,-0.44613 6.44187,-1.38481 8.76786,-1.31396 9.49836,0.28936 0.18579,0.40773 0.50943,0.75207 0.71922,0.76521 0.20979,0.0131 1.20309,0.0469 2.20737,0.075 1.44366,0.0404 2.07174,0.22126 3,0.86381 1.36305,0.94354 2.89965,1.52447 5.39424,2.03937 2.14761,0.4433 3.882,1.28003 4.16118,2.00753 0.28851,0.7519 -0.83484,1.5832 -2.18961,1.6203 -0.60048,0.0164 -1.41342,0.12005 -1.80657,0.23022 -0.63543,0.17807 -0.66225,0.24395 -0.2415,0.59316 0.26034,0.21606 0.89442,1.04901 1.40907,1.85101 0.714,1.11267 0.91338,1.72918 0.84147,2.60194 -0.0925,1.12228 -0.11922,1.14556 -1.42467,1.23873 -1.14615,0.0818 -1.56411,-0.0698 -3.01731,-1.09466 -2.13129,-1.50302 -5.20764,-2.57792 -9.57972,-3.34722 -1.88511,-0.33169 -3.51627,-0.60308 -3.62484,-0.60308 -0.10854,0 0.005,0.94461 0.25335,2.09913 0.24789,1.15452 0.36741,2.18242 0.26562,2.28422 -0.10182,0.1018 -0.67863,-0.11993 -1.28184,-0.49273 -0.60321,-0.3728 -1.65657,-0.7024 -2.34078,-0.73243 -0.68454,-0.03 -2.55831,-0.6176 -4.16628,-1.30639 -1.60722,-0.68849 -3.13143,-1.2518 -3.38715,-1.2518 -0.25569,0 -0.85737,0.29017 -1.33707,0.64483 -0.76482,0.56543 -1.12341,0.62199 -2.91285,0.45939 -2.03544,-0.18495 -3.31596,-0.46171 -13.98603,-3.02279 -8.32035,-1.99709 -12.70314,-2.67942 -15.57669,-2.42505 -2.89875,0.25659 -3.07623,0.13066 -4.87065,-3.45638 -1.78845,-3.57509 -3.1962,-7.22505 -5.72751,-14.85 -1.20507,-3.63 -2.67108,-7.95 -3.25776,-9.6 -0.58668,-1.65 -1.06788,-3.38012 -1.06938,-3.84472 0,-0.4646 -0.14241,-1.10585 -0.31323,-1.425 -0.40452,-0.75588 -1.76178,-0.75556 -7.63944,0.002 -10.49058,1.35168 -20.53755,1.80936 -39.75,1.81079 -18.65472,0.002 -31.64568,-0.46534 -45.9,-1.64907 -2.8875,-0.23979 -8.28751,-0.63832 -12.00001,-0.88562 -12.04752,-0.80254 -15.36399,-1.0931 -20.7,-1.81357 -11.42622,-1.54278 -17.55567,-2.04183 -25.40868,-2.0687 -5.80575,-0.0199 -7.64889,0.064 -7.94763,0.36178 -0.31845,0.31737 -0.13287,0.88842 1.02372,3.15 1.95234,3.8175 4.76043,8.4258 7.62453,12.51236 3.07488,4.38732 4.90806,7.50326 4.90806,8.34245 0,0.53061 -0.17373,0.65755 -0.9,0.65755 -1.12542,0 -1.16364,0.4275 -0.075,0.83922 1.69023,0.63923 4.71234,1.03098 13.18137,1.70864 6.84438,0.54767 8.81133,0.88079 9.33156,1.58042 0.32661,0.43924 0.91947,0.52481 3.75,0.54129 1.84914,0.0108 4.03707,0.17689 4.86207,0.36917 0.825,0.19228 3.7275,0.48378 6.45,0.64777 6.66429,0.40142 9.87645,1.32995 13.72309,3.96694 1.25781,0.86226 2.77692,2.74738 2.77692,3.44597 0,0.67205 -1.12098,0.71973 -3.65361,0.15541 -4.08385,-0.90998 -4.80919,-0.0682 -2.7964,3.24517 1.1088,1.8253 1.34145,3.12396 0.60993,3.40468 -0.87609,0.33619 -3.73857,-0.81171 -10.46466,-4.19651 -3.7701,-1.89725 -7.04385,-3.37697 -7.275,-3.28827 -0.23115,0.0887 -0.42027,0.48647 -0.42027,0.88395 0,1.41063 -0.44487,1.44892 -6.02658,0.51883 -2.87286,-0.47872 -5.46075,-0.96452 -5.75085,-1.07957 -0.2901,-0.11504 -0.9651,-0.004 -1.5,0.24612 -0.75492,0.3534 -1.34184,0.39585 -2.62257,0.18968 -3.02835,-0.48749 -9.09531,-2.78036 -14.38539,-5.43662 l -5.23539,-2.62879 -2.26461,2.19703 c -1.95759,1.89916 -3.52734,3.11367 -3.65136,2.82502 -0.0201,-0.0471 -0.12147,-1.50305 -0.225,-3.23555 l -0.18825,-3.15 -1.125,0.0985 c -1.23726,0.10829 -1.27797,0.0217 -0.85188,-1.81266 0.37284,-1.60505 -0.16059,-2.27947 -1.39764,-1.76706 -1.10685,0.45847 -2.38983,1.76986 -2.52531,2.58126 -0.0873,0.52317 0.0439,0.58873 1.02483,0.51202 1.07616,-0.0842 1.125,-0.0478 1.125,0.83863 0,0.59522 -0.27585,1.20247 -0.7713,1.69792 -0.67089,0.67088 -0.93453,0.74537 -2.025,0.57214 -0.68955,-0.10954 -2.41359,-0.73276 -3.83121,-1.38494 -1.41765,-0.65217 -2.85981,-1.18577 -3.20481,-1.18577 -0.3729,0 -0.708,-0.2544 -0.82638,-0.62739 -0.22134,-0.69739 -1.80135,-1.47261 -3.00138,-1.47261 -1.17639,0 -1.87455,0.49577 -2.5428,1.80564 -0.87822,1.72147 -1.75899,2.1967 -3.76314,2.0305 -2.37339,-0.19682 -3.25791,-0.9345 -3.37698,-2.81633 -0.11454,-1.81045 -0.35886,-2.06981 -1.94979,-2.06981 l -1.25721,0 -0.009,-1.8 c -0.005,-0.99 -0.0426,-2.475 -0.084,-3.3 l -0.0752,-1.5 -1.11603,1.27964 c -0.61383,0.70381 -1.28481,1.27756 -1.49106,1.275 -0.28377,-0.004 -0.3759,-1.15414 -0.37875,-4.72964 l -0.004,-4.725 -1.18422,1.275 c -0.65133,0.70125 -1.45445,1.275 -1.78471,1.275 -0.91289,0 -1.33255,-1.97978 -1.1204,-5.28562 0.0966,-1.5046 0.0915,-2.81965 -0.0112,-2.92235 -0.1027,-0.10269 -0.76188,0.28459 -1.46487,0.86063 -2.00851,1.64583 -2.37343,1.48004 -2.81229,-1.27766 -0.2035,-1.27875 -0.41763,-2.48534 -0.47585,-2.68132 -0.24055,-0.80971 -2.59389,-0.99031 -12.88902,-0.9891 -12.29,0.002 -19.74617,0.37965 -22.07682,1.11985 -2.44606,0.77686 -11.21126,0.6765 -17.5145,-0.20054 -16.09072,-2.23887 -23.85134,-4.88521 -30.85945,-10.52295 -2.83944,-2.28421 -4.31675,-4.40087 -4.69542,-6.72749 -0.27178,-1.66989 -1.02201,-3.02122 -1.5099,-2.71969 -0.12424,0.0768 -0.31163,0.5966 -0.41641,1.15514 -0.42421,2.26125 -5.21214,7.89671 -9.21565,10.84695 -3.24694,2.39272 -5.1235,3.18528 -8.13185,3.43448 -3.80388,0.31509 -8.101,-0.0999 -9.40964,-0.90864 -0.81105,-0.50126 -1.82393,-0.70759 -4.5383,-0.9245 -1.92183,-0.15357 -4.75665,-0.55274 -6.2996,-0.88703 -1.54295,-0.33429 -3.12955,-0.56558 -3.52579,-0.51398 l -0.72044,0.0938 0.54418,1.5 c 0.29929,0.825 0.83114,2.27288 1.18188,3.21751 0.8336,2.2451 0.879,5.32113 0.0891,6.03599 -1.19467,1.08117 -1.91959,0.44718 -4.23469,-3.7035 -1.52349,-2.73143 -2.61346,-3.94569 -2.99348,-3.33482 -0.39384,0.63309 0.15989,2.13564 1.17178,3.17965 1.11036,1.1456 1.12442,1.62086 0.1034,3.49681 -0.98834,1.81589 -1.92851,2.17373 -2.95066,1.12304 -0.38239,-0.39307 -1.70141,-2.60468 -2.93115,-4.91468 -4.09433,-7.69098 -6.82857,-11.64882 -7.68276,-11.1209 -0.47157,0.29145 -0.26872,1.73876 0.77323,5.51684 0.89983,3.26279 0.74207,3.77473 -0.9191,2.98258 -0.55993,-0.26702 -1.52922,-0.93392 -2.15399,-1.482 l -1.13594,-0.99652 0.20773,1.2 c 0.11426,0.66 0.29202,2.31038 0.39503,3.66752 0.16376,2.15757 0.12283,2.49225 -0.32588,2.66444 -0.28224,0.1083 -0.8758,0.0148 -1.31903,-0.20789 -0.44323,-0.22265 -0.90712,-0.45415 -1.03087,-0.51444 -0.12375,-0.0603 -0.24097,1.01537 -0.26049,2.39037 -0.0195,1.375 -0.12382,2.905 -0.23176,3.4 -0.18898,0.86657 -0.25731,0.9 -1.83951,0.9 -2.27478,0 -2.48851,0.19705 -2.32695,2.14532 0.10201,1.23011 0.32589,1.81806 0.93395,2.45273 0.45514,0.47507 0.79976,1.17735 0.79976,1.62977 0,0.66817 -0.16438,0.82583 -1.03044,0.9883 -1.18633,0.22256 -2.79099,-0.23199 -3.90081,-1.10497 -0.72887,-0.57321 -0.76896,-0.57588 -0.76896,-0.0513 0,0.30438 0.41488,1.05674 0.92197,1.67192 1.92777,2.33873 0.32812,2.97848 -3.22653,1.29039 -1.97786,-0.93928 -2.54206,-1.07218 -4.55158,-1.07213 -4.18806,1.1e-4 -12.3581,1.57123 -14.54938,2.79788 l -1.15552,0.64685 -0.68757,-0.8623 c -0.64254,-0.80582 -0.70672,-0.8253 -0.97999,-0.29739 -0.16084,0.31069 -0.38927,1.10024 -0.50764,1.75453 -0.11836,0.6543 -0.41856,1.58288 -0.6671,2.06352 -0.42871,0.82902 -0.52735,0.86495 -1.92147,0.69983 -1.25491,-0.14862 -1.51538,-0.0884 -1.7832,0.41198 -1.34284,2.50912 -18.99409,4.67149 -33.891994,4.15196 -2.88751,-0.1007 -5.63845,-0.34015 -6.11322,-0.53211 -0.80489,-0.32543 -0.8532,-0.43787 -0.715,-1.66394 0.0815,-0.7232 0.065,-1.4423 -0.0368,-1.59798 -0.70374,-1.07681 -3.66514,-1.2866 -5.62142,-0.39824 -1.07172,0.48668 -1.38071,0.86545 -2.31957,2.84341 -0.91437,1.92638 -1.1976,2.28194 -1.81771,2.28194 -0.53337,0 -0.76083,-0.18488 -0.83044,-0.675 -0.0832,-0.5858 -0.27426,-0.675 -1.44586,-0.675 l -1.35,0 0.024,-1.24988 c 0.0132,-0.68743 0.25395,-1.56493 0.53496,-1.95 0.28101,-0.38506 0.84783,-1.1646 1.2596,-1.7323 0.41177,-0.5677 0.82076,-1.3777 0.90886,-1.8 0.0881,-0.4223 0.22136,-1.06986 0.29613,-1.43902 0.29046,-1.43414 1.36348,-1.7293 6.26364,-1.72295 4.01107,0.005 4.67954,0.0802 6.01278,0.67454 2.41862,1.0782 3.92311,1.23298 15.426074,1.58699 l 10.92608,0.33625 1.90772,-2.05181 c 2.40832,-2.59024 4.11204,-5.05141 3.89261,-5.62323 -0.41689,-1.08643 -6.35436,-1.47503 -9.60408,-0.62859 -2.57545,0.67082 -2.89839,0.61848 -2.89839,-0.46972 0,-0.50585 0.13984,-1.18103 0.31077,-1.50041 0.49718,-0.92899 3.09416,-2.05877 5.50233,-2.39372 2.75291,-0.38289 5.08329,-0.0467 7.91079,1.1413 l 2.06417,0.86727 4.88562,-5.65542 c 9.61837,-11.13388 12.54152,-14.29941 20.45646,-22.15265 l 8.02592,-7.96335 -1.43423,-0.97871 c -1.76252,-1.20274 -2.4669,-2.13948 -3.11552,-4.14329 -0.27571,-0.85178 -1.89254,-4.36245 -3.59295,-7.80148 -4.86557,-9.84047 -6.02728,-14.01135 -6.54541,-23.49981 -0.16668,-3.0525 -0.39641,-5.63752 -0.51051,-5.74448 -0.19746,-0.18511 -20.66075,-6.04417 -30.20744,-8.64901 -7.16355,-1.95459 -31.219014,-7.92408 -37.950014,-9.4175 -7.71256,-1.7112 -29.508222,-5.69021 -34.500001,-6.29831 -2.0625,-0.25125 -5.0325,-0.53651 -6.6,-0.63391 -4.868037,-0.30248 -5.7,-0.45227 -5.7,-1.02621 0,-0.66534 1.485624,-2.96994 2.533792,-3.93058 0.785964,-0.72033 0.968614,-0.74914 4.617272,-0.72821 4.512407,0.0259 7.57643,0.55444 28.548937,4.92466 25.24467,5.26045 40.196874,8.7211 46.800014,10.83175 6.1753,1.97389 16.77301,4.48829 18.79712,4.45978 l 0.85288,-0.012 -0.9,-0.48817 c -0.495,-0.2685 -2.7225,-1.28431 -4.95,-2.25735 -2.2275,-0.97305 -5.82398,-2.69967 -7.99217,-3.83693 -9.24677,-4.85014 -23.889054,-11.04923 -28.350134,-12.00256 -1.48144,-0.31658 -3.07972,-0.85061 -3.55175,-1.18672 -1.39136,-0.99073 -4.11116,-2.25657 -10.41865,-4.84901 -3.26552,-1.34218 -7.48981,-3.07799 -9.38731,-3.85736 -1.8975,-0.77939 -4.7325,-1.78319 -6.3,-2.23069 -1.5675,-0.44749 -5.415,-1.86385 -8.55,-3.14745 -3.135,-1.2836 -7.377138,-2.9944 -9.426973,-3.80178 -5.12588,-2.01896 -6.751996,-3.59532 -5.712473,-5.53768 0.26012,-0.48604 0.63771,-0.57956 2.325,-0.57585 2.738783,0.006 4.896997,0.56252 9.666713,2.49255 2.226253,0.90084 6.815233,2.60477 10.197733,3.78652 10.40127,3.63392 13.07588,4.65754 31.2,11.94089 19.772234,7.94566 33.355644,14.04168 51.243274,22.9972 2.83254,1.41812 5.20806,2.57841 5.27894,2.57841 0.0709,0 0.42815,-0.91125 0.79393,-2.025 2.65805,-8.09339 8.50841,-14.96348 15.39271,-18.07565 4.13709,-1.87025 14.71545,-4.92548 22.84116,-6.59694 2.475,-0.50911 9.765,-2.26138 16.2,-3.89394 16.94617,-4.29925 15.19693,-4.06108 29.7,-4.04393 13.02937,0.0154 19.54689,0.37407 24.63283,1.35556 6.48102,1.25071 16.18335,4.23935 21.42556,6.59979 4.45896,2.00776 4.71418,2.02604 15.23088,1.09119 17.74135,-1.57706 27.28863,-1.95968 55.22209,-2.21306 l 21.41136,-0.19422 7.92264,-6.4769 c 4.35744,-3.5623 8.62731,-7.05382 9.48864,-7.75895 0.8613,-0.70512 4.94676,-3.6406 9.07878,-6.52329 9.82695,-6.85575 11.10534,-7.89639 11.02647,-8.97581 -0.0518,-0.70809 0.0325,-0.80699 0.56814,-0.66692 0.36264,0.0948 1.24107,-0.14576 2.07501,-0.56835 2.16927,-1.09926 9.73371,-6.22678 14.8176,-10.04405 9.60844,-7.21456 13.5061,-10.75642 23.03164,-20.92931 8.33013,-8.896209 10.10325,-9.960219 16.5981,-9.960219 1.92426,0 4.86477,0.21711 6.53448,0.48247 6.36075,1.01089 8.78895,2.6967 10.10778,7.017529 0.32736,1.0725 1.53882,3.705 2.6922,5.85 3.85851,7.17606 4.79226,9.31032 5.71038,13.05193 0.98457,4.01245 1.94607,6.83527 2.54484,7.47126 0.33957,0.36071 0.65256,0.22781 2.11956,-0.9 0.94662,-0.72775 2.74263,-2.10055 3.99108,-3.05066 7.2087,-5.48592 16.89054,-7.83366 23.03742,-5.58632 4.4235,1.61726 11.37036,11.1817 18.49488,25.46379 1.68735,3.3825 4.07358,8.61155 5.30277,11.62012 l 2.23488,5.47012 8.25,0.008 c 28.60989,0.0291 66.62571,1.71838 70.92897,3.15189 0.67155,0.22371 2.77353,0.68147 4.67103,1.01724 1.8975,0.33576 5.07,1.01852 7.05,1.51723 3.43818,0.86599 3.76857,1.0204 7.35,3.43522 4.75995,3.20946 6.08511,3.87467 7.22145,3.62508 0.84132,-0.18478 0.86619,-0.15853 0.6891,0.7269 -0.16203,0.81015 0.0129,1.13109 1.48251,2.71833 2.007,2.16778 5.47977,7.29195 6.73572,9.93871 1.56702,3.30229 2.78445,5.77893 3.40011,6.91699 0.72921,1.34796 1.40406,6.27899 1.52958,11.17611 l 0.0915,3.57233 -2.92431,1.29846 c -3.20199,1.42177 -8.33037,2.87492 -12.06918,3.41985 -1.3164,0.19187 -3.2172,0.60328 -4.22397,0.91424 -1.0068,0.31097 -3.10224,0.82974 -4.65654,1.15283 -1.5543,0.32309 -4.53663,0.99898 -6.62742,1.50197 -7.0068,1.68567 -29.03619,5.39259 -41.94858,7.05876 -7.07967,0.91354 -7.5,0.99824 -7.5,1.5113 0,0.62025 1.43466,1.60928 2.65542,1.83061 1.50423,0.27272 3.14985,1.14296 4.5453,2.40365 1.71171,1.54644 1.73853,1.92603 0.30651,4.33648 -0.79806,1.34333 -1.17879,2.29419 -1.06377,2.65663 0.19728,0.62156 2.14956,1.52056 3.30207,1.52056 0.41253,0 0.86634,0.24846 1.03731,0.56794 0.49977,0.9338 -0.62121,1.98058 -3.28914,3.07139 -1.41531,0.57867 -2.3937,1.15359 -2.3937,1.40659 0,1.39578 5.65056,7.56585 8.337,9.1035 1.72647,0.98817 2.57844,2.00072 2.29809,2.73124 -0.2331,0.60746 -1.40988,0.88878 -2.70306,0.64618 -0.83952,-0.1575 -1.03203,-0.10066 -1.03203,0.30467 0,1.62917 2.87568,4.43536 6.80532,6.64086 1.40478,0.78844 2.63196,1.63632 2.72709,1.88418 0.21483,0.55983 -1.71993,2.29162 -3.12972,2.8014 -0.55149,0.19942 -1.00269,0.55046 -1.00269,0.78009 0,0.91412 3.75618,4.18295 6.24381,5.43371 3.09789,1.55758 4.85619,3.08787 4.85619,4.22643 0,1.11599 -0.55845,1.50722 -2.5341,1.77533 -0.91599,0.1243 -1.73619,0.29678 -1.82271,0.3833 -0.41769,0.41769 0.49011,1.38418 3.12528,3.32732 3.16584,2.33445 6.33153,5.21134 6.33153,5.75392 0,0.19069 -0.57375,0.47389 -1.275,0.62933 -1.56285,0.34643 -1.72014,0.93375 -0.75861,2.83262 0.55845,1.10285 0.91476,1.42315 1.94619,1.74958 0.75474,0.23886 1.3368,0.63337 1.44708,0.98081 0.10146,0.31968 1.1442,1.21986 2.3172,2.00042 2.56473,1.70663 3.02196,2.31957 2.19081,2.93676 -0.32031,0.23784 -1.03329,0.43243 -1.58442,0.43243 -2.2476,0 -1.44309,1.66607 1.92126,3.97875 5.11458,3.51583 5.79549,4.08726 5.79549,4.86371 0,0.80428 -0.81366,1.48504 -2.175,1.81975 -0.45375,0.11156 -0.825,0.3045 -0.825,0.42875 0,0.12426 1.11375,0.0403 2.475,-0.18645 9.94071,-1.65626 16.6644,-2.27725 17.46474,-1.61303 0.25314,0.21009 0.46026,0.63969 0.46026,0.95467 0,0.87823 0.56772,0.92413 3.31482,0.26801 3.9972,-0.95471 9.45033,-1.30312 17.63646,-1.12682 5.29512,0.11404 7.95315,0.29556 9.34872,0.63843 1.0725,0.26349 2.8275,0.6259 3.9,0.80534 2.41152,0.40348 3.41721,0.87751 5.62053,2.64927 1.21413,0.9763 1.75776,1.63341 1.82439,2.20517 0.11616,0.99648 -0.30597,1.03266 -2.64171,0.22645 -0.90573,-0.31263 -1.70901,-0.50619 -1.78506,-0.43015 -0.12465,0.12466 0.0988,1.04544 1.25151,5.15595 0.60789,2.16781 -0.32346,2.95714 -2.15964,1.83025 z M 357.42251,285.7182 c 0.53622,-0.20387 0.85113,-0.64592 1.08873,-1.52834 0.43476,-1.61454 0.45414,-3.5466 0.0398,-3.96099 -0.3318,-0.3318 -0.52971,-0.26473 -2.44332,0.82784 -1.22796,0.70111 -1.5396,0.0552 -1.98147,-4.10673 -0.21576,-2.03222 -0.39831,-3.75119 -0.40566,-3.81993 -0.007,-0.0687 -0.46731,0.40014 -1.02213,1.04195 -0.93213,1.07835 -1.06806,1.13991 -1.79022,0.81087 -0.90243,-0.41117 -2.60103,-2.62249 -2.60103,-3.38611 0,-1.28712 -1.37685,-1.37453 -2.3916,-0.15185 -0.29097,0.35061 -0.8544,0.45438 -2.18223,0.40195 -1.46562,-0.0579 -1.86576,0.0329 -2.20809,0.50108 -0.70518,0.9644 -0.5325,1.62788 0.40692,1.56357 0.81051,-0.0555 0.82764,-0.021 0.975,1.96318 0.12123,1.6323 0.27507,2.10716 0.80205,2.47593 0.35862,0.25095 0.81495,0.96211 1.01409,1.58034 0.48198,1.49637 0.81867,1.87407 1.67058,1.87407 0.59253,0 0.71328,0.15236 0.71328,0.9 0,1.69839 0.97962,2.16896 6.15,2.95419 2.49684,0.3792 3.29346,0.39048 4.16535,0.059 z m -203.51957,-6.2611 c 0.57519,-0.27613 1.20485,-0.83957 1.39927,-1.25207 0.19441,-0.4125 0.85315,-1.81287 1.46385,-3.11193 0.67208,-1.42961 1.68942,-2.96268 2.57729,-3.88383 0.99319,-1.03042 1.4133,-1.69075 1.30094,-2.04479 -0.1101,-0.34687 0.0661,-0.64517 0.52345,-0.88609 0.88938,-0.46852 1.12917,-0.84716 1.13482,-1.79194 0.003,-0.50578 0.31776,-1.00012 0.92047,-1.44571 1.53597,-1.1356 5.65044,-7.23571 4.88041,-7.23571 -0.1176,0 -0.80269,0.64125 -1.52242,1.425 -1.27795,1.39161 -1.30455,1.40392 -1.13527,0.525 0.56138,-2.91469 0.56085,-3.15 -0.007,-3.15 -0.75843,0 -3.47295,2.87651 -4.27181,4.52674 -0.36282,0.74949 -0.65967,1.78622 -0.65967,2.30386 0,2.20793 -1.40387,3.19238 -2.77847,1.94839 -0.54709,-0.49512 -0.59539,-0.49412 -0.97131,0.02 -0.21757,0.29755 -0.55095,1.43315 -0.74083,2.52357 -0.18989,1.09042 -0.5328,2.43142 -0.76201,2.98002 -0.38488,0.92115 -0.52039,0.99744 -1.77151,0.99744 -1.59537,0 -1.9743,0.47019 -1.9788,2.45528 -0.004,1.67809 -1.21734,4.31551 -2.11707,4.60107 -0.50758,0.1611 -0.8021,0.0446 -1.19101,-0.47095 l -0.51668,-0.68498 -0.78615,0.78616 c -0.43239,0.43238 -0.78616,0.91914 -0.78616,1.08168 0,0.75897 6.11797,0.58932 7.79579,-0.21619 z m 132.62022,-19.42135 c 0.42174,-0.50816 0.11908,-1.03072 -0.59697,-1.03072 -0.69271,0 -1.33687,0.76021 -1.12094,1.32289 0.19083,0.49731 1.20599,0.32466 1.71791,-0.29217 z m 42.74508,-5.8499 c -0.98803,-1.05629 -1.37474,-1.69617 -1.26913,-2.1 0.11913,-0.45559 -0.004,-0.58082 -0.57003,-0.58082 -1.51917,0 -0.52897,1.6471 2.12808,3.53987 1.32376,0.943 1.28282,0.82126 -0.28892,-0.85905 z m -124.06108,-1.17026 c 0,-0.59912 -0.20755,-1.00052 -0.63583,-1.22973 -0.58942,-0.31545 -0.62073,-0.49692 -0.42887,-2.48556 0.27937,-2.89562 1.19577,-7.54184 1.81365,-9.19527 0.67131,-1.79642 0.69704,-2.40954 0.11682,-2.78344 -0.95112,-0.61292 -1.46577,-0.0478 -1.46577,1.60942 0,1.28797 -0.14933,1.71489 -0.89816,2.56776 -0.49399,0.56262 -1.14982,1.52544 -1.4574,2.1396 -0.77919,1.55582 -3.44802,8.46981 -3.30872,8.57168 0.25148,0.18392 5.24917,1.63113 5.73928,1.66196 0.38937,0.0245 0.525,-0.19675 0.525,-0.85642 z m 363.8302,-32.58405 c 0.0441,-0.31708 -0.22587,-1.04901 -0.6,-1.62651 l -0.68019,-1.05 -0.0923,1.1123 c -0.10299,1.24017 0.3939,2.43639 0.93765,2.25744 0.19509,-0.0642 0.39078,-0.37616 0.43488,-0.69323 z m 61.88472,-5.68421 c 0.97224,-0.50277 1.13328,-0.96589 0.42969,-1.23588 -0.59067,-0.22666 -2.2446,0.45859 -2.2446,0.92998 0,0.85698 0.56505,0.95222 1.81491,0.3059 z m 6.13509,-1.48447 c 1.14774,-0.70692 1.16493,-0.73951 0.39453,-0.74846 -1.11129,-0.0129 -2.22699,0.45161 -2.44419,1.01765 -0.27327,0.71208 0.65424,0.59027 2.04966,-0.26919 z m 28.89588,-10.50245 c 0.10398,-1.24543 -1.15797,-5.6256 -1.89798,-6.58771 -0.41628,-0.54123 -0.4479,-0.48285 -0.4479,0.82698 0,1.12938 0.14898,1.53886 0.75,2.06144 0.51843,0.45076 0.75,0.95962 0.75,1.64802 0,1.12426 -0.51501,1.28045 -1.8,0.5459 -0.95667,-0.54689 -2.34033,-0.54792 -3.3,-0.002 -0.68601,0.38991 -0.57564,0.41075 1.29342,0.24426 l 2.04342,-0.18201 -0.0934,0.86937 c -0.0789,0.73418 0.0699,0.95107 0.95658,1.39461 1.3704,0.6855 1.63047,0.56359 1.74588,-0.81841 z m -19.36653,-11.44889 c 0.29115,-0.0823 0.45192,-0.27496 0.3573,-0.42808 -0.23139,-0.37441 -1.28061,-0.35053 -3.19689,0.0728 -1.39539,0.30823 -1.49808,0.37872 -0.83976,0.5766 0.7113,0.21381 2.52681,0.10463 3.67935,-0.22128 z m -298.50436,-7.61583 c -0.40242,-0.16176 -0.94758,-0.16176 -1.35,0 -0.55122,0.22156 -0.42744,0.27132 0.675,0.27132 1.10244,0 1.22622,-0.0498 0.675,-0.27132 z m 310.72501,-1.87977 c 0,-0.049 -0.57375,-0.62276 -1.275,-1.275 l -1.275,-1.18588 1.18587,1.275 c 1.10286,1.18573 1.36413,1.41286 1.36413,1.18588 z M 406.20716,168.73085 c -0.66525,-0.37838 -6.70668,-0.71914 -7.85751,-0.4432 l -0.99249,0.23797 1.05,0.20022 c 1.57956,0.30119 8.32836,0.30552 7.8,0.005 z m 19.04349,-0.34023 c 1.1514,-0.1664 2.22465,-0.43372 2.385,-0.59406 0.42372,-0.42373 -5.29203,-0.37284 -6.33396,0.0564 l -0.84453,0.34792 0.9,0.21659 c 1.29246,0.31103 1.56861,0.30913 3.89349,-0.0268 z m 24.06889,-7.08639 c 1.94571,-1.26544 6.56124,-4.17057 10.25679,-6.45583 8.60439,-5.32083 19.73544,-13.66414 24.99117,-18.73223 1.44792,-1.39624 1.671,-1.74989 1.45401,-2.3052 -0.141,-0.36076 -0.95331,-2.19342 -1.80519,-4.07256 -0.85185,-1.87915 -1.96362,-4.71415 -2.47056,-6.3 -1.90764,-5.96764 -5.41164,-11.66951 -7.77216,-12.64727 -1.38306,-0.57289 -2.26503,-0.11317 -5.26407,2.74387 -4.37442,4.16727 -11.70699,8.69237 -15.55236,9.59773 -3.69399,0.8697 -4.386,1.52799 -13.12491,12.48504 -7.35858,9.22637 -9.57237,11.82976 -17.54893,20.63726 l -5.70561,6.3 1.23972,0.23177 c 2.44938,0.45791 8.90481,0.73191 18.2521,0.77469 l 9.51237,0.0435 3.53763,-2.30081 z m 45.47922,1.08046 c 0.62787,-0.17436 1.2198,-0.52086 1.31541,-0.77 0.21474,-0.55965 -1.21341,-4.97559 -2.04357,-6.31884 -0.73548,-1.19003 -0.9189,-1.12432 -3.63966,1.30395 -1.03056,0.91979 -2.85711,2.35228 -4.05894,3.18329 -1.20183,0.83102 -2.13603,1.65838 -2.07594,1.83858 0.20979,0.62945 2.48778,1.03742 5.91111,1.05864 1.8975,0.0118 3.96372,-0.12127 4.59159,-0.29562 z m 28.25841,-0.60179 c 9.04125,-0.32541 15.40893,-0.73678 15.68547,-1.01334 0.81891,-0.81892 -4.95369,-10.81289 -9.50508,-16.45589 -1.17171,-1.45275 -2.13039,-2.9225 -2.13039,-3.2661 0,-0.60374 -0.0956,-0.61772 -2.8449,-0.41591 -3.51459,0.25799 -7.76838,1.26824 -11.94375,2.83657 -3.88872,1.46068 -8.87136,3.98623 -9.78675,4.96063 l -0.67653,0.72011 1.37823,5.95304 c 0.75801,3.27416 1.45047,6.26963 1.53882,6.65659 l 0.16065,0.70357 4.71213,-0.18307 c 2.59164,-0.10069 8.6271,-0.32398 13.4121,-0.4962 z m -1.6584,-28.77357 c 1.24581,-0.63557 1.79649,-1.20853 1.1511,-1.1977 -0.67845,0.0114 -2.9427,1.1492 -2.9427,1.47874 0,0.46279 0.48165,0.38723 1.7916,-0.28104 z m 4.36377,-9.59878 c -0.64152,-0.65698 -1.19892,-1.16195 -1.2387,-1.12218 -0.0398,0.0398 0.0857,0.5773 0.27891,1.19449 0.3018,0.96419 0.47619,1.12218 1.2387,1.12218 l 0.88749,0 -1.1664,-1.19449 z m -47.85537,-20.87266 c 0,-0.25694 -0.14526,-1.04402 -0.3228,-1.74908 l -0.32277,-1.281919 -0.90894,0.849079 c -0.80601,0.75293 -1.13466,0.8501 -2.90223,0.85819 -2.4834,0.0114 -1.99989,0.38383 1.53438,1.18196 3.10845,0.70198 2.92236,0.69295 2.92236,0.14177 z m -9,-1.67935 c 0,-0.13942 -0.45807,-0.2535 -1.0179,-0.2535 -1.35318,0 -1.52766,-0.59758 -0.58611,-2.007119 l 0.76344,-1.14288 -1.3797,1.33746 c -1.56801,1.519989 -1.67523,1.812539 -0.66423,1.812539 0.43836,0 0.91224,0.30028 1.22346,0.77526 0.48639,0.7423 0.53247,0.75308 1.0845,0.2535 0.3171,-0.28696 0.57654,-0.63583 0.57654,-0.77526 z m 10.0224,-1.303499 c -0.27027,-0.4125 -0.71214,-0.74933 -0.9819,-0.74851 -0.34374,10e-4 -0.22119,0.22224 0.4095,0.73921 1.13181,0.927729 1.17465,0.928419 0.5724,0.009 z"
       id="path4695"
       inkscape:connector-curvature="0" />
  </g>
</svg>
