<?xml version="1.0" encoding="UTF-8" standalone="no"?>
<!-- Created with Inkscape (http://www.inkscape.org/) -->

<svg
   xmlns:dc="http://purl.org/dc/elements/1.1/"
   xmlns:cc="http://creativecommons.org/ns#"
   xmlns:rdf="http://www.w3.org/1999/02/22-rdf-syntax-ns#"
   xmlns:svg="http://www.w3.org/2000/svg"
   xmlns="http://www.w3.org/2000/svg"
   xmlns:sodipodi="http://sodipodi.sourceforge.net/DTD/sodipodi-0.dtd"
   xmlns:inkscape="http://www.inkscape.org/namespaces/inkscape"
   width="206.76601mm"
   height="206.76601mm"
   viewBox="0 0 732.63546 732.63547"
   id="svg2"
   version="1.1"
   inkscape:version="0.91 r13725"
   sodipodi:docname="Heuschrecken_Logo.svg">
  <defs
     id="defs4">
    <clipPath
       clipPathUnits="userSpaceOnUse"
       id="clipPath4152">
      <rect
         style="opacity:0.98000004;fill:#54ffff;fill-opacity:0.51877136"
         id="rect4154"
         width="672.7616"
         height="238.396"
         x="46.467018"
         y="167.46857"
         ry="0.093373984" />
    </clipPath>
    <filter
       style="color-interpolation-filters:sRGB;"
       inkscape:label="Colorize"
       id="filter4327">
      <feComposite
         in2="SourceGraphic"
         operator="arithmetic"
         k1="0"
         k2="1"
         result="composite1"
         id="feComposite4329" />
      <feColorMatrix
         in="composite1"
         values="1"
         type="saturate"
         result="colormatrix1"
         id="feColorMatrix4331" />
      <feFlood
         flood-opacity="0"
         flood-color="rgb(0,0,0)"
         result="flood1"
         id="feFlood4333" />
      <feBlend
         in="flood1"
         in2="colormatrix1"
         mode="multiply"
         result="blend1"
         id="feBlend4335" />
      <feBlend
         in2="blend1"
         mode="screen"
         result="blend2"
         id="feBlend4337" />
      <feColorMatrix
         in="blend2"
         values="1"
         type="saturate"
         result="colormatrix2"
         id="feColorMatrix4339" />
      <feComposite
         in="colormatrix2"
         in2="SourceGraphic"
         operator="in"
         k2="1"
         result="fbSourceGraphic"
         id="feComposite4341" />
      <feColorMatrix
         result="fbSourceGraphicAlpha"
         in="fbSourceGraphic"
         values="0 0 0 -1 0 0 0 0 -1 0 0 0 0 -1 0 0 0 0 1 0"
         id="feColorMatrix4391" />
      <feComposite
         id="feComposite4393"
         in2="fbSourceGraphic"
         operator="arithmetic"
         k1="0"
         k2="1"
         result="composite1"
         in="fbSourceGraphic" />
      <feColorMatrix
         id="feColorMatrix4395"
         in="composite1"
         values="1"
         type="saturate"
         result="colormatrix1" />
      <feFlood
         id="feFlood4397"
         flood-opacity="1"
         flood-color="rgb(255,255,255)"
         result="flood1" />
      <feBlend
         id="feBlend4399"
         in2="colormatrix1"
         in="flood1"
         mode="multiply"
         result="blend1" />
      <feBlend
         id="feBlend4401"
         in2="blend1"
         mode="screen"
         result="blend2" />
      <feColorMatrix
         id="feColorMatrix4403"
         in="blend2"
         values="1"
         type="saturate"
         result="colormatrix2" />
      <feComposite
         id="feComposite4405"
         in2="fbSourceGraphic"
         in="colormatrix2"
         operator="in"
         k2="1"
         result="composite2" />
    </filter>
    <filter
       style="color-interpolation-filters:sRGB;"
       inkscape:label="Colorize"
       id="filter4343">
      <feComposite
         in2="SourceGraphic"
         operator="arithmetic"
         k1="0"
         k2="1"
         result="composite1"
         id="feComposite4345" />
      <feColorMatrix
         in="composite1"
         values="1"
         type="saturate"
         result="colormatrix1"
         id="feColorMatrix4347" />
      <feFlood
         flood-opacity="0"
         flood-color="rgb(0,0,0)"
         result="flood1"
         id="feFlood4349" />
      <feBlend
         in="flood1"
         in2="colormatrix1"
         mode="multiply"
         result="blend1"
         id="feBlend4351" />
      <feBlend
         in2="blend1"
         mode="screen"
         result="blend2"
         id="feBlend4353" />
      <feColorMatrix
         in="blend2"
         values="1"
         type="saturate"
         result="colormatrix2"
         id="feColorMatrix4355" />
      <feComposite
         in="colormatrix2"
         in2="SourceGraphic"
         operator="in"
         k2="1"
         result="fbSourceGraphic"
         id="feComposite4357" />
      <feColorMatrix
         result="fbSourceGraphicAlpha"
         in="fbSourceGraphic"
         values="0 0 0 -1 0 0 0 0 -1 0 0 0 0 -1 0 0 0 0 1 0"
         id="feColorMatrix4407" />
      <feComposite
         id="feComposite4409"
         in2="fbSourceGraphic"
         operator="arithmetic"
         k1="0"
         k2="1"
         result="composite1"
         in="fbSourceGraphic" />
      <feColorMatrix
         id="feColorMatrix4411"
         in="composite1"
         values="1"
         type="saturate"
         result="colormatrix1" />
      <feFlood
         id="feFlood4413"
         flood-opacity="1"
         flood-color="rgb(255,255,255)"
         result="flood1" />
      <feBlend
         id="feBlend4415"
         in2="colormatrix1"
         in="flood1"
         mode="multiply"
         result="blend1" />
      <feBlend
         id="feBlend4417"
         in2="blend1"
         mode="screen"
         result="blend2" />
      <feColorMatrix
         id="feColorMatrix4419"
         in="blend2"
         values="1"
         type="saturate"
         result="colormatrix2" />
      <feComposite
         id="feComposite4421"
         in2="fbSourceGraphic"
         in="colormatrix2"
         operator="in"
         k2="1"
         result="composite2" />
    </filter>
  </defs>
  <sodipodi:namedview
     id="base"
     pagecolor="#ffffff"
     bordercolor="#666666"
     borderopacity="1.0"
     inkscape:pageopacity="0.0"
     inkscape:pageshadow="2"
     inkscape:zoom="0.35"
     inkscape:cx="794.60615"
     inkscape:cy="426.41659"
     inkscape:document-units="px"
     inkscape:current-layer="layer1"
     showgrid="false"
     fit-margin-left="0.2"
     fit-margin-top="0.2"
     fit-margin-right="0.2"
     fit-margin-bottom="0.2"
     inkscape:window-width="1600"
     inkscape:window-height="837"
     inkscape:window-x="1912"
     inkscape:window-y="177"
     inkscape:window-maximized="1" />
  <metadata
     id="metadata7">
    <rdf:RDF>
      <cc:Work
         rdf:about="">
        <dc:format>image/svg+xml</dc:format>
        <dc:type
           rdf:resource="http://purl.org/dc/dcmitype/StillImage" />
        <dc:title></dc:title>
      </cc:Work>
    </rdf:RDF>
  </metadata>
  <g
     inkscape:groupmode="layer"
     id="layer4"
     inkscape:label="Hintergrund"
     style="display:none">
    <rect
       ry="0.096539199"
       y="-83.078896"
       x="-150"
       height="858.57141"
       width="1075.7142"
       id="rect4423"
       style="display:inline;opacity:1;fill:#4d4d4d;fill-opacity:1;stroke:#000000;stroke-width:12.61900043;stroke-miterlimit:4;stroke-dasharray:none;stroke-opacity:1" />
  </g>
  <g
     inkscape:label="Ebene 1"
     inkscape:groupmode="layer"
     id="layer1"
     style="display:inline"
     transform="translate(164.01392,187.53392)">
    <g
       id="g4448"
       transform="translate(36.029949,21.744217)">
      <circle
         style="display:inline;opacity:1;fill:#00ffff;fill-opacity:0;stroke:#ffffff;stroke-width:14.87900066;stroke-miterlimit:4;stroke-dasharray:none;stroke-opacity:1"
         id="path4427"
         cx="170.87521"
         cy="161.64098"
         r="354.27689" />
      <path
         transform="translate(-219.97257,-125.02559)"
         clip-path="url(#clipPath4152)"
         inkscape:connector-curvature="0"
         id="path3347"
         d="m 663.5152,695.78715 c -1.1,-0.64401 -3.5751,-1.28643 -5.5,-1.42761 -5.1427,-0.37714 -11.129,-1.18327 -14.1836,-1.90997 -2.362,-0.56194 -2.6176,-0.38636 -2.1334,1.46545 0.6815,2.60608 -1.2325,2.75546 -6.4652,0.5046 -6.8212,-2.9342 -9.466,-3.48975 -8.8393,-1.85677 0.7841,2.04353 0.095,1.89548 -9.4251,-2.02566 -10.466,-4.3106 -13.4084,-4.61344 -9.0302,-0.92941 3.0333,2.55237 4.0936,5.41111 2.0069,5.41111 -1.8337,0 -9.5426,-5.75956 -11.3011,-8.44339 -0.9213,-1.40614 -2.284,-2.55661 -3.0283,-2.55661 -1.25,0 -9.6007,-18.31219 -9.6007,-21.05336 0,-0.70452 -0.8421,-0.95969 -2.0901,-0.63335 -1.2311,0.32195 -3.8787,-0.45204 -6.4424,-1.88337 -5.0566,-2.82306 -8.4675,-3.15456 -8.4675,-0.82293 0,1.13825 -0.5105,1.39684 -1.75,0.88655 -0.9625,-0.39625 -2.65,-0.96742 -3.75,-1.26928 -1.1,-0.30185 -2.225,-0.83466 -2.5,-1.18402 -0.6752,-0.85763 -10.9744,-5.04024 -12.4112,-5.04024 -2.0508,0 -4.5816,-3.9359 -6.7207,-10.45194 -1.5726,-4.79068 -2.6314,-6.50508 -4.2327,-6.85386 -1.1745,-0.25581 -9.7855,-0.53099 -19.1355,-0.61152 -23.2978,-0.20065 -43.1764,-0.95186 -54.5,-2.05956 -5.225,-0.51113 -13.1,-1.20491 -17.5,-1.54173 -14.3763,-1.10053 -17.9504,-1.42676 -21.5,-1.96242 -1.925,-0.29051 -6.875,-0.76111 -11,-1.04579 -9.7707,-0.67432 -16.0759,-1.38726 -18.25,-2.06357 -0.9625,-0.29941 -1.75,-0.22815 -1.75,0.15835 0,0.3865 2.1375,4.73663 4.75,9.66694 l 4.75,8.96421 5.5,-0.54588 c 7.5768,-0.752 18.7146,0.7785 21.0508,2.89269 2.5688,2.32479 1.5821,3.49598 -2.0642,2.45021 -3.3603,-0.96372 -3.8425,-0.34902 -1.2366,1.57631 1.3225,0.977 1.4689,1.57831 0.5994,2.46089 -0.8772,0.89036 -2.0062,0.85861 -4.75,-0.13357 -1.9796,-0.71584 -3.5994,-1.64075 -3.5994,-2.05534 0,-0.72036 -1.9068,-1.13475 -10.2516,-2.22781 -3.3868,-0.44361 -3.6568,-0.31409 -2.7762,1.33139 1.9876,3.71387 9.0199,6.30269 19.5278,7.18885 5.5,0.46384 10.9,0.81098 12,0.77143 1.1001,-0.0395 6.2654,-0.0345 11.4785,0.0111 8.6878,0.0761 9.6844,0.28892 11.947,2.55151 1.3577,1.35768 2.1474,2.78964 1.7548,3.18214 -0.3925,0.3925 -1.2461,0.18114 -1.8969,-0.4697 -1.139,-1.13897 -5.7834,-1.69691 -5.7834,-0.69476 0,1.12505 3.5447,4.51143 4.7223,4.51143 0.7028,0 1.2777,0.675 1.2777,1.5 0,0.825 -0.3374,1.489 -0.75,1.47555 -1.6098,-0.0525 -9.8559,-2.05599 -11.75,-2.85486 -3.9931,-1.68423 -9.1897,-3.12069 -11.2896,-3.12069 -1.5971,0 -1.983,0.42896 -1.5054,1.67361 0.4794,1.2492 0.2337,1.51683 -0.9688,1.05538 -0.8861,-0.34002 -3.5517,-1.11993 -5.9236,-1.73312 -2.3719,-0.6132 -5.1001,-1.34345 -6.0626,-1.62278 -1.2858,-0.37316 -1.75,0.0689 -1.75,1.66651 0,1.35401 -0.4716,1.97547 -1.25,1.64718 -0.6875,-0.28996 -4.175,-1.73292 -7.75,-3.20659 -3.575,-1.47367 -7.0709,-3.14669 -7.7687,-3.71781 -0.9056,-0.74114 -1.7869,-0.56949 -3.0787,0.59961 -2.6846,2.42948 -3.4353,2.01145 -2.8947,-1.61199 0.2667,-1.7875 0.059,-4.375 -0.4612,-5.75 -0.8752,-2.31282 -1.0423,-2.36898 -2.2316,-0.75 -1.8111,2.46542 -3.3689,2.17474 -2.8515,-0.53207 0.419,-2.19183 0.1443,-2.29228 -6.9474,-2.54008 -6.3566,-0.22212 -7.6404,0.0258 -9.2299,1.78207 -2.8608,3.16118 -3.7845,2.48557 -3.0212,-2.20992 0.5651,-3.47699 0.4538,-4.02264 -0.6121,-3 -1.8902,1.81341 -4.0573,1.532 -3.8506,-0.5 0.098,-0.9625 0.1261,-2.5926 0.063,-3.62244 -0.095,-1.54824 -0.3749,-1.6569 -1.6152,-0.62756 -1.2683,1.05257 -1.5,0.84107 -1.5,-1.36908 0,-1.5017 -0.8234,-3.12817 -1.935,-3.8224 -1.3726,-0.85723 -1.7884,-1.94955 -1.4305,-3.75848 0.5004,-2.52902 0.4484,-2.55054 -6.3149,-2.61079 -5.3007,-0.0472 -7.9401,-0.63874 -11.8505,-2.65579 -4.2968,-2.21642 -5.6816,-2.47605 -9.4913,-1.7794 -2.4533,0.44861 -4.821,0.59287 -5.2616,0.32057 -0.4405,-0.2723 -7.0206,-0.62005 -14.6222,-0.77277 -10.9257,-0.2195 -14.5307,-0.65056 -17.2076,-2.05756 -1.8625,-0.97893 -4.1556,-2.15803 -5.0958,-2.62021 -0.9402,-0.46218 -3.0861,-0.565 -4.7687,-0.22848 -6.6822,1.33646 -14.9102,-4.65031 -19.0974,-13.89561 -1.5888,-3.50788 -2.0765,-3.4556 -4.3961,0.47129 -2.3192,3.92601 -5.7384,7.2061 -11.009,10.56109 -5.4229,3.45196 -10.505,4.45343 -16.1638,3.18526 -4.1003,-0.91891 -4.8958,-0.80949 -6.7518,0.92875 -1.1571,1.08371 -3.3327,2.43595 -4.8347,3.00498 -1.502,0.56903 -2.5521,1.61151 -2.3335,2.31662 1.2107,3.90596 1.4884,6.78201 0.6549,6.78201 -1.7516,0 -4.0906,-3.1224 -4.0906,-5.46064 0,-1.27479 -0.885,-3.38014 -1.9667,-4.67858 -1.864,-2.23747 -1.9742,-2.25631 -2.1107,-0.36078 -0.079,1.1 -0.072,2.93536 0.016,4.07858 0.088,1.14322 -0.7211,3.16647 -1.7978,4.49613 l -1.9576,2.41755 -0.5688,-3.49613 c -0.3128,-1.92287 -0.4665,-5.17587 -0.3415,-7.22888 0.2224,-3.65241 0.066,-3.82815 -7.27268,-8.16522 -6.47336,-3.82573 -7.6991,-4.24009 -8.95446,-3.02709 -1.22971,1.18824 -1.25416,1.95924 -0.15819,4.99009 1.57437,4.35385 0.95803,5.28035 -1.7267,2.59562 -1.777,-1.777 -2.0769,-1.82129 -2.62693,-0.38793 -0.35069,0.91389 0.28149,2.83863 1.45262,4.42268 1.7508,2.36807 1.82517,2.8046 0.47786,2.8046 -0.87764,0 -2.53194,-0.50107 -3.67626,-1.11349 -1.80355,-0.96523 -2.00962,-0.86537 -1.5477,0.75 0.29307,1.02492 0.85704,2.65099 1.25329,3.61349 0.5036,1.22327 0.25452,1.75 -0.82752,1.75 -0.8514,0 -1.83064,-0.45734 -2.17609,-1.01631 -0.34546,-0.55897 -1.04702,-0.75742 -1.55902,-0.44098 -1.44854,0.89524 -1.09874,3.61434 0.72409,5.62855 1.56062,1.72447 1.515,1.82874 -0.80001,1.82874 -1.35024,0 -3.04557,-0.5625 -3.76738,-1.25 -1.07315,-1.02212 -1.17666,-0.79425 -0.56782,1.25 0.40952,1.375 1.1351,2.65 1.61239,2.83333 1.69012,0.64919 0.83509,1.73316 -1.52089,1.92815 -1.62349,0.13436 -2.55094,-0.42269 -2.89514,-1.73891 -0.43126,-1.64916 -1.14923,-1.85913 -4.83712,-1.41461 -2.38188,0.2871 -4.83297,0.93885 -5.44687,1.44834 -0.6139,0.50949 -1.42387,0.61866 -1.79994,0.24259 -0.37607,-0.37607 -1.57216,-0.81934 -2.65799,-0.98505 -1.5931,-0.24313 -1.97423,0.27666 -1.97423,2.69243 0,3.52661 -1.68099,3.94771 -2.96884,0.74373 -0.56608,-1.40834 -0.9281,-1.66466 -0.96777,-0.68521 -0.11577,2.85776 -6.82237,5.04293 -16.7726,5.4649 -5.1498,0.21839 -9.78767,0.65937 -10.30636,0.97994 -0.5187,0.32057 -1.93702,0.0509 -3.15182,-0.59921 -1.21479,-0.65014 -5.69413,-1.16603 -9.95407,-1.14642 -7.58487,0.0349 -10.35891,0.64972 -9.46412,2.09751 0.24587,0.39783 -0.41293,0.7881 -1.464,0.86727 -3.02349,0.22775 -3.3642,-1.65391 -0.80518,-4.44686 l 2.3548,-2.57002 -3.25,0.61905 c -3.39461,0.64659 -3.85476,0.17437 -2.27134,-2.33095 1.07111,-1.69474 14.28432,-2.30021 21.77133,-0.99762 2.33751,0.40667 4.25002,0.46001 4.25004,0.11851 2e-5,-0.34149 4.44978,-0.65101 9.88836,-0.68782 7.69588,-0.0521 10.24565,-0.42427 11.49996,-1.67857 0.8864,-0.88641 1.61164,-2.08518 1.61164,-2.66394 0,-0.98165 -1.83222,-0.92919 -12.58581,0.36037 -4.74145,0.56858 -6.31036,-0.94397 -2.80981,-2.70888 4.53161,-2.28474 10.26738,-2.82247 13.90303,-1.3034 3.23987,1.35371 3.25162,1.34774 8.4514,-4.29153 2.86385,-3.10592 10.0072,-10.76612 15.8741,-17.02267 5.8669,-6.25656 10.54344,-11.80251 10.39231,-12.32433 -0.15111,-0.52183 0.12096,-0.7042 0.60464,-0.40527 0.48368,0.29893 1.87973,-0.52128 3.10234,-1.82268 l 2.22292,-2.36619 -2.39767,-3.85299 c -1.31871,-2.11914 -3.19542,-5.87799 -4.17046,-8.35299 -1.82761,-4.63916 -4.84185,-19.91718 -4.35916,-22.09494 0.29568,-1.334 -5.92914,-3.50611 -12.58602,-4.3918 -2.278,-0.30309 -7.06681,-1.00374 -10.64181,-1.55702 -3.575,-0.55327 -8.75,-1.18847 -11.5,-1.41156 -2.75,-0.22308 -9.275,-0.87471 -14.5,-1.44805 -11.15058,-1.22356 -49.78762,-1.32498 -61.97006,-0.16267 -8.95272,0.85417 -12.02993,0.0695 -12.02993,-3.06752 0,-0.90885 0.69773,-1.92021 1.55052,-2.24745 1.90674,-0.73169 63.83202,-0.91133 71.44947,-0.20727 6.51923,0.60255 21.86636,1.71824 24,1.74473 0.82501,0.0102 3.8408,0.66049 6.70177,1.445 2.86097,0.78451 6.46097,1.62843 8,1.87539 5.64266,0.90545 10.98542,2.2118 12.25502,2.99646 0.87556,0.54112 1.1531,0.34961 0.84648,-0.5841 -1.08627,-3.30794 -32.02287,-11.86677 -51.80327,-14.33174 -2.47499,-0.30842 -5.4,-0.73734 -6.5,-0.95315 -1.09999,-0.2158 -5.15,-0.70424 -8.99999,-1.08541 -3.85,-0.38117 -8.125,-0.85871 -9.5,-1.0612 -8.16239,-1.20202 -25.50505,-2.5577 -32.71967,-2.5577 -7.78225,0 -13.28033,-1.21637 -13.28033,-2.93807 0,-0.39437 0.68707,-1.28726 1.52683,-1.9842 1.16087,-0.96343 5.17561,-1.11823 16.75,-0.64583 8.37274,0.34173 16.34817,0.83729 17.72317,1.10123 1.375,0.26395 8.30388,1.18747 15.39751,2.05227 21.76949,2.65398 22.80131,2.8208 43.60248,7.0495 14.975,3.04428 22.45872,5.31687 28.42658,8.63229 1.52743,0.84856 2.20535,0.68908 3.27207,-0.76974 0.74002,-1.01204 1.08678,-2.51426 0.77056,-3.33828 -0.3162,-0.82401 -0.26443,-1.18772 0.11506,-0.80823 0.37948,0.37948 1.86577,-0.13797 3.30285,-1.1499 7.8319,-5.51487 20.51064,-9.10104 32.17634,-9.10104 3.3813,0 8.8313,-0.69534 12.111,-1.54519 3.3253,-0.86168 9.3609,-1.46832 13.6443,-1.37141 4.2247,0.0956 10.0178,-0.31752 12.8737,-0.918 4.1438,-0.87132 6.2051,-0.79106 10.2072,0.39743 3.9711,1.1793 6.3419,1.27721 11.3918,0.47048 4.4569,-0.71199 8.9112,-0.6852 14.7929,0.089 10.3578,1.36335 7.1626,1.47301 28.4156,-0.9752 17.6447,-2.03256 39.0389,-3.73517 43,-3.42208 1.1001,0.087 12.125,-0.48902 24.5,-1.27992 12.375,-0.7909 23.0389,-1.4396 23.6976,-1.44154 0.6586,-0.002 4.9336,-4.56105 9.5,-10.13134 17.8747,-21.80448 28.0088,-33.76197 36.0973,-42.59202 3.5055,-3.82688 5.5162,-6.81086 5.0896,-7.55314 -0.3878,-0.67487 -0.3544,-0.91102 0.074,-0.52478 0.9701,0.8742 7.2482,-6.5246 9.4245,-11.10673 0.8893,-1.87246 2.8544,-4.73255 4.3669,-6.35576 1.5125,-1.6232 2.75,-3.31536 2.75,-3.76036 0,-1.4412 9.687,-7.96679 12.7297,-8.57534 6.6164,-1.32328 12.7164,8.7531 15.242,25.17759 1.999,12.99973 1.8277,12.59594 4.5793,10.79298 3.1367,-2.05521 13.1863,-2.07902 17.1282,-0.0406 4.1842,2.16373 5.1663,3.63659 6.8664,10.29702 0.824,3.22791 1.7734,6.54392 2.11,7.36892 0.3365,0.825 0.7817,2.85 0.9893,4.5 0.2076,1.65 2.1442,8.4 4.3036,15 l 3.9261,12 4.8127,0.22501 c 16.5241,0.77255 20.3139,0.7341 20.3281,-0.20625 0.01,-0.61775 0.3045,-0.58446 0.75,0.0846 0.4623,0.69427 5.3691,1.15094 13.2347,1.23173 11.8493,0.1217 24.8851,0.51052 58,1.72998 7.975,0.29368 16.075,0.99806 18,1.56529 5.5113,1.624 15.4014,6.44351 16.8809,8.2262 0.7401,0.89179 1.8142,1.33185 2.3869,0.97793 0.5726,-0.35392 0.7573,-0.18411 0.4102,0.37736 -0.347,0.56148 0.2472,1.81548 1.3203,2.78667 3.3477,3.02965 7.751,13.87827 9.6573,23.79321 0.4591,2.38783 -2.2659,5.12432 -7.1557,7.18577 -5.1218,2.15929 -22.6877,8.46095 -25.1329,9.01629 -1.0269,0.23323 -5.7815,1.53111 -10.5658,2.88418 -4.7843,1.35308 -12.0863,3.00661 -16.2266,3.67451 -4.1403,0.6679 -7.3127,1.56236 -7.0498,1.98769 0.2628,0.42533 -0.3503,0.55674 -1.3625,0.29204 -1.0123,-0.26471 -4.2754,0.024 -7.2514,0.64154 -2.976,0.61755 -7.211,1.26778 -9.411,1.44495 -5.8895,0.4743 -13.8925,1.64056 -14.342,2.09002 -0.2153,0.21529 1.9111,0.69687 4.7253,1.07019 5.6082,0.74395 5.5679,0.70955 4.0816,3.48684 -0.9057,1.69229 -0.6868,1.94305 1.75,2.00455 1.5318,0.0387 3.6851,0.42754 4.7851,0.86418 1.8496,0.7342 1.6993,1.07654 -2,4.55244 -2.4919,2.34152 -3.5287,3.93219 -2.75,4.21915 2.4893,0.91727 1.1244,3.37844 -5.5591,10.02371 -3.745,3.72363 -7.4575,7.67023 -8.25,8.77023 -0.7925,1.1 -3.1299,3.45013 -5.1943,5.22251 l -3.7535,3.22252 2.9538,1.52748 c 1.6246,0.84012 3.7296,1.52749 4.6778,1.52749 1.4791,0 1.4,0.34488 -0.5568,2.42777 -1.2544,1.33527 -2.8504,2.20915 -3.5467,1.94196 -0.9033,-0.34662 -1.1144,0.30725 -0.7368,2.28228 0.6316,3.30438 3.6479,6.81694 5.0889,5.92633 0.5645,-0.34889 1.5002,0.25094 2.0793,1.33296 0.7734,1.44521 0.7219,2.17189 -0.1944,2.73814 -1.3834,0.85502 2.9971,2.13206 9.9406,2.89797 5.5566,0.61292 9.5742,2.2019 8.7872,3.47531 -0.3757,0.60798 -2.7446,0.80383 -5.8102,0.48037 -3.6627,-0.38645 -4.5911,-0.26913 -3.1758,0.40133 2.9041,1.37571 7.5,5.6419 7.5,6.96193 0,1.63303 -0.9981,1.38033 -5.5,-1.39244 -4.5176,-2.78248 -6.5,-3.11507 -6.5,-1.09054 0,0.76085 -0.9,1.61872 -2,1.90638 -3.2657,0.85401 -2.2961,3.36589 2.4635,6.38189 5.0408,3.19413 5.6773,5.00395 2.0777,5.90737 -2.3212,0.58261 -2.3738,0.74676 -0.94,2.93509 2.1353,3.25881 3.7563,3.6239 8.5619,1.92839 5.0525,-1.78265 7.5141,-0.38513 3.2536,1.84718 l -2.8039,1.46911 4.1101,0.6944 c 2.2606,0.38192 6.2446,0.37432 8.8534,-0.0169 4.0213,-0.60303 4.654,-0.4788 4.1571,0.81629 -0.5207,1.35691 -0.01,1.3736 4.5902,0.14937 2.847,-0.75802 5.9639,-1.38355 6.9264,-1.39008 2.0029,-0.0136 2.3784,2.53417 0.5,3.39303 -0.6875,0.31436 0.325,0.23936 2.25,-0.16667 4.8178,-1.01619 15.4482,-0.60393 17.8717,0.69308 1.0983,0.58778 4.0249,1.06869 6.5036,1.06869 4.5641,0 6.9475,1.56446 4.5968,3.01728 -0.7063,0.43652 -2.339,0.60241 -3.6281,0.36864 -2.5268,-0.4582 -3.2652,1.32333 -0.9213,2.22278 0.7825,0.30027 1.6684,1.18614 1.9686,1.96862 0.6695,1.74446 -2.056,1.85085 -4.8913,0.19094 z m -84.7984,-53.26826 c -1.6411,-4.95 -3.045,-9.0872 -3.1198,-9.19378 -0.075,-0.10658 -2.1489,0.26381 -4.609,0.8231 -2.46,0.55929 -7.1637,1.05315 -10.4526,1.09748 -7.1213,0.096 -9.7071,0.66181 -8.911,1.9499 0.3227,0.52213 -0.1355,1.74733 -1.0182,2.72266 -1.4892,1.64562 -1.4243,1.8556 0.9021,2.91555 1.3996,0.63772 2.5069,1.98416 2.5069,3.04843 0,1.57572 0.9969,2.02318 5.75,2.58085 7.4079,0.86915 9.4155,1.47886 8.6972,2.64122 -0.348,0.56297 2.196,0.83553 6.3282,0.67801 l 6.91,-0.26342 -2.9838,-9 z m -192.3855,0.63685 c 0.4318,1.05437 0.9122,0.92344 2.121,-0.57798 0.8596,-1.06762 1.5629,-2.30512 1.5629,-2.75 0,-1.0185 -2.2856,-0.60391 -3.1382,0.56925 -0.351,0.48296 -1.1369,0.56992 -1.7464,0.19324 -0.783,-0.48391 -0.6571,-1.55706 0.4291,-3.65748 0.8454,-1.63494 1.2672,-3.4094 0.9373,-3.94325 -0.834,-1.34944 -3.2334,-1.21585 -3.7075,0.20642 -0.8493,2.54771 -2.8831,-0.40562 -2.2534,-3.27225 0.3509,-1.59764 0.3451,-2.9048 -0.013,-2.9048 -1.2759,0 -3.4004,2.77572 -2.7104,3.54128 0.3863,0.42865 0.2149,0.50204 -0.3809,0.16307 -0.5958,-0.33896 -0.8832,-2.09861 -0.6385,-3.91032 0.43,-3.1854 0.3835,-3.2353 -1.4118,-1.51329 -1.8043,1.73067 -1.7589,1.96906 1.6151,8.47662 4.0786,7.86649 6.875,11.09275 8.0154,9.24752 0.5877,-0.95092 0.888,-0.92088 1.3192,0.13197 z M 172.33743,627.41639 c -0.46431,-1.21001 -0.77749,-1.15723 -1.85188,0.31208 -1.58044,2.16139 -0.80744,3.81503 1.05918,2.26587 0.74334,-0.61692 1.10007,-1.777 0.7927,-2.57795 z m 32.28484,-24.86856 c -0.27779,-1.89265 -1.60713,-3.24828 -1.60713,-1.6389 0,0.8645 -0.65195,0.76672 -2.22251,-0.33334 -2.64559,-1.85304 -4.09401,-2.00627 -3.55045,-0.37559 0.21653,0.6496 1.94153,1.74037 3.83333,2.42392 1.8918,0.68355 3.51231,1.27705 3.60115,1.31889 0.0888,0.0418 0.0643,-0.5859 -0.0544,-1.39498 z M 409.7581,562.7815 c 0.1324,-1.7584 -0.033,-1.91897 -0.7719,-0.75 -1.156,1.82839 -1.2274,2.98739 -0.1839,2.98739 0.433,0 0.8631,-1.00683 0.9558,-2.23739 z m -18.4992,-0.48492 c -0.6909,-0.24668 -0.9589,-0.9296 -0.5955,-1.51761 0.4001,-0.6473 0.1861,-0.77574 -0.5423,-0.32556 -0.9315,0.57567 -0.9342,1.06754 -0.012,2.17867 0.6551,0.78933 1.4644,1.13766 1.7986,0.77407 0.3341,-0.36359 0.042,-0.8629 -0.6488,-1.10957 z m 5.2716,-1.30247 c 0.3483,-0.56362 0.037,-0.90112 -0.691,-0.75 -0.7284,0.15113 -1.2119,-0.28772 -1.0744,-0.97522 0.1375,-0.6875 -0.2,-1.25 -0.75,-1.25 -0.55,0 -1,0.6 -1,1.33333 0,2.48744 2.3224,3.57214 3.5154,1.64189 z m 4.1459,-4.02802 c 0.1894,-1.34596 0.01,-1.96438 -0.4085,-1.37426 -0.414,0.59012 -1.6401,1.40183 -2.7247,1.8038 -1.653,0.61263 -1.7339,0.88128 -0.5,1.6608 2.1243,1.3421 3.2405,0.69992 3.6332,-2.09034 z m 18.9102,1.21947 c 0,-1.00834 -0.5543,-1.83334 -1.2317,-1.83334 -0.8845,0 -0.9551,0.5168 -0.2506,1.83334 0.5397,1.00833 1.094,1.83333 1.2317,1.83333 0.1378,0 0.2506,-0.825 0.2506,-1.83333 z m -212.6104,-6.30248 c -0.4946,-1.7247 -1.20993,-3.4122 -1.58953,-3.75 -0.37961,-0.33781 -0.41314,0.1589 -0.0745,1.10378 0.33861,0.94489 0.11713,2.02608 -0.49216,2.40265 -0.73516,0.45435 -0.48799,1.1379 0.7348,2.03202 2.45879,1.79794 2.45229,1.80612 1.42139,-1.78845 z m 197.0389,1.57679 c 0,-0.85746 -0.45,-1.2809 -1,-0.94098 -0.55,0.33992 -1,1.04148 -1,1.55902 0,0.51754 0.45,0.94098 1,0.94098 0.55,0 1,-0.70156 1,-1.55902 z m -201.18305,-3.25789 c 1.51082,1.18212 1.54261,1.13779 0.31066,-0.43309 -0.75486,-0.9625 -1.01735,-1.75 -0.58334,-1.75 0.43401,0 0.48733,-0.30177 0.1185,-0.67061 -0.72781,-0.72782 -5.66272,3.4944 -5.66272,4.84492 0,0.45413 0.93011,-0.10442 2.06691,-1.24122 1.75589,-1.75589 2.32019,-1.86875 3.75,-0.75 z M 511.449,512.17505 c -0.4208,-2.56089 -1.028,-6.55564 -1.3494,-8.87723 -0.3577,-2.5836 -0.9791,-3.94135 -1.6018,-3.5 -0.5595,0.39659 -3.9884,4.34703 -7.6197,8.77876 -6.3432,7.74134 -6.4897,8.04115 -3.7327,7.6365 1.5784,-0.23166 2.8689,-0.0326 2.8679,0.44231 -0.001,0.47493 2.7438,0.70877 6.0995,0.51966 l 6.1013,-0.34383 -0.7651,-4.65617 z m 24.1823,3.93233 3.1161,-0.0885 -1.4151,-6.25 c -1.8509,-8.1751 -6.4228,-22.99706 -7.4573,-24.17637 -0.4843,-0.55207 -1.5292,-0.29776 -2.5862,0.62941 -0.9755,0.85568 -3.1237,2.26858 -4.7737,3.13978 -5.866,3.09727 -5.6972,2.46348 -3.5228,13.22532 1.1037,5.46253 2.2161,10.83354 2.472,11.9356 0.3998,1.72168 1.2104,1.98047 5.7581,1.83849 2.911,-0.0909 6.695,-0.20506 8.4089,-0.25374 z m -70.3165,-6.75732 c 0.4399,-0.73214 1.3982,-1.33117 2.1297,-1.33117 1.1497,0 8.1894,-4.9731 15.2075,-10.74318 12.3038,-10.11584 20.2738,-17.04853 21.1773,-18.42092 0.7672,-1.16544 0.7906,-2.66373 0.078,-5 -0.5597,-1.83475 -1.4228,-5.5859 -1.9179,-8.3359 -0.4952,-2.75 -1.492,-7.58494 -2.2152,-10.74432 l -1.3149,-5.74431 -4.5947,4.24431 c -2.5271,2.33438 -5.8367,6.71932 -7.3548,9.74432 -1.5181,3.025 -4.8838,9.1 -7.4795,13.5 -11.1424,18.88823 -21.015,36.13866 -21.015,36.71976 0,0.99942 6.4168,-2.41881 7.2997,-3.88859 z m 36.2003,-17.16419 c 1.4943,-0.82644 1.6048,-1.11385 0.4371,-1.13657 -0.8596,-0.0167 -2.8846,1.43045 -4.5,3.21596 -2.3106,2.55394 -2.4038,2.79636 -0.4371,1.13657 1.375,-1.16039 3.4,-2.60757 4.5,-3.21596 z m 27.3751,-19.31022 c 0.5384,0.8349 1.1131,0.97137 1.4942,0.35479 0.3406,-0.55109 -0.153,-1.29834 -1.097,-1.66056 -1.471,-0.56448 -1.5059,-0.7916 -0.2442,-1.58947 1.1702,-0.74004 1.0228,-0.93403 -0.719,-0.94621 -1.2051,-0.008 -2.5121,0.50422 -2.9045,1.1392 -0.4722,0.76393 -0.2707,0.88081 0.5954,0.34549 0.8662,-0.53532 1.0677,-0.41844 0.5955,0.34549 -0.3924,0.63498 -1.4744,1.18614 -2.4045,1.2248 -1.3626,0.0566 -1.3026,0.22429 0.309,0.8635 1.216,0.48228 2.294,0.35672 2.75,-0.32028 0.5311,-0.78842 1.0055,-0.7174 1.625,0.24325 z m -27.3665,-33.60161 c 1.4643,-0.81945 1.4695,-1.02851 0.055,-2.20271 -1.0188,-0.84557 -1.5632,-0.91394 -1.5632,-0.19632 0,0.78803 -0.7183,0.7737 -2.5271,-0.0504 -1.9779,-0.90118 -2.7929,-0.86453 -3.75,0.16861 -0.9883,1.06686 -0.8699,1.1953 0.6174,0.66963 3.1521,-1.11409 4.0943,0.57535 1.047,1.87739 l -2.8873,1.23365 3.6954,-0.29722 c 2.0325,-0.16347 4.4234,-0.70464 5.3132,-1.2026 z m 205.9368,-39.70065 c -1.7469,-2.19613 -2.9636,-2.51598 -11.9312,-3.1366 -8.9097,-0.61663 -9.8485,-0.52575 -8.7123,0.84333 1.1115,1.33927 0.7917,1.49863 -2.5142,1.25297 -2.0832,-0.15481 -5.3627,-0.56325 -7.2876,-0.90765 -1.925,-0.3444 -2.9375,-0.35926 -2.25,-0.033 2.9423,1.39618 0.9443,2.40308 -3.5,1.76385 -6.578,-0.94612 -18.1463,-0.98949 -21.75,-0.0815 -3.8237,0.96335 -3.6057,1.28965 -22.2853,-33.35681 -2.2539,-4.18053 -5.4446,-9.80553 -7.0904,-12.5 -6.2556,-10.24185 -9.5971,-16.07558 -12.1831,-21.26981 -1.4707,-2.95394 -2.9627,-4.90358 -3.3156,-4.33253 -0.3529,0.57104 -4.0269,3.58609 -8.1645,6.70011 -8.9661,6.74809 -19.8353,11.96563 -29.4502,14.13695 -3.856,0.87079 -7.0109,1.99172 -7.0109,2.49094 0,0.49922 1.5649,1.65394 3.4776,2.56603 2.6259,1.25221 3.2192,1.96969 2.4225,2.92962 -0.7341,0.88448 -1.7776,0.99658 -3.4297,0.36842 -3.5612,-1.35395 -2.1962,0.9517 2.5611,4.3261 5.3124,3.76816 5.1112,5.14452 -0.7257,4.9631 -1.7067,-0.053 1.214,4.17745 4.2636,6.17562 3.4197,2.24062 3.118,3.93391 -0.5694,3.19643 -3.3104,-0.66206 -3.6955,0.0167 -1.6199,2.85518 1.2091,1.65352 3.029,1.92893 14.6851,2.22229 7.3177,0.18417 13.814,0.75737 14.4363,1.27378 0.6785,0.56315 2.5054,0.59009 4.5649,0.0673 7.3734,-1.87169 10.7518,-1.9845 11.3677,-0.37959 0.3685,0.96022 1.3435,1.34093 2.5956,1.01349 1.103,-0.28844 2.6279,0.0981 3.3888,0.85889 0.7608,0.76082 3.2279,1.67828 5.4824,2.03879 4.7108,0.75329 5.7526,3.39064 1.3491,3.41516 -1.5125,0.008 -2.3,0.34592 -1.75,0.75 0.55,0.40408 1.5413,1.70717 2.2029,2.89576 1.6922,3.0401 -1.2447,4.0986 -4.1084,1.4807 -1.152,-1.05312 -4.6731,-2.34598 -7.8246,-2.87303 l -5.7301,-0.95825 0.6459,2.59475 c 0.5546,2.22775 0.4327,2.41919 -0.8619,1.35344 -0.8293,-0.68273 -1.7605,-0.98872 -2.0692,-0.67997 -0.3088,0.30874 -2.3401,-0.29806 -4.5142,-1.34845 -3.2462,-1.56838 -4.1126,-1.66863 -4.8466,-0.56078 -0.7303,1.10221 -3.4519,0.70662 -14.8752,-2.16213 -9.1746,-2.30401 -15.0914,-3.30292 -17.21,-2.90547 -3.1059,0.58266 -3.3233,0.40224 -5.7204,-4.7481 -1.3705,-2.94458 -3.3901,-8.30041 -4.488,-11.90186 -1.0979,-3.60144 -2.5398,-7.87644 -3.2042,-9.5 -1.2627,-3.08586 -1.4924,-3.94248 -1.7437,-6.50431 -0.1345,-1.37059 -1.1185,-1.41421 -8.4023,-0.3725 -17.7017,2.53162 -58.759,2.49988 -87.25,-0.0675 -2.75,-0.24781 -9.275,-0.70796 -14.5,-1.02256 -5.225,-0.31461 -10.85,-0.76895 -12.5,-1.00964 -19.9715,-2.91335 -37.5,-3.7667 -37.5,-1.82563 0,1.18997 5.24,10.42624 8.1413,14.35018 3.0993,4.19161 5.8587,8.71993 5.8587,9.61431 0,0.21213 -0.7875,0.41421 -1.75,0.44908 -1.2257,0.0444 -1.001,0.36365 0.75,1.06555 1.375,0.55118 7.0976,1.26462 12.717,1.58541 5.944,0.33932 9.9752,0.97459 9.6388,1.51896 -0.3313,0.53604 1.0828,0.81576 3.3108,0.65489 2.139,-0.15444 4.3266,-0.0234 4.8612,0.29121 0.5347,0.3146 3.7518,0.60204 7.1492,0.63875 6.3171,0.0683 12.5799,2.37665 15.2824,5.63292 1.8203,2.19342 0.9836,2.67977 -2.7622,1.60549 -3.9454,-1.13153 -4.9461,0.15156 -2.7419,3.51565 2.9088,4.43933 0.6554,4.40371 -8.0053,-0.12654 -4.6744,-2.44513 -8.713,-4.44569 -8.9745,-4.44569 -0.2616,0 -0.4756,0.66088 -0.4756,1.46862 0,0.80773 -0.5625,1.2849 -1.25,1.06037 -0.6875,-0.22453 -3.1903,-0.65107 -5.5619,-0.94787 -2.3715,-0.29679 -4.6956,-0.77677 -5.1646,-1.06661 -0.4689,-0.28983 -1.0036,-0.10736 -1.188,0.40549 -0.4891,1.35962 -9.3402,-1.2995 -16.262,-4.88551 l -5.9265,-3.07042 -2.6282,2.51797 c -1.4455,1.38488 -2.8364,2.51796 -3.0908,2.51796 -0.2544,0 -0.3901,-1.54255 -0.3014,-3.4279 0.1262,-2.6827 -0.1669,-3.30199 -1.3481,-2.84873 -1.166,0.44744 -1.3539,0.0899 -0.8265,-1.5721 0.7671,-2.41684 -1.2085,-2.99474 -3.252,-0.95127 -1.6303,1.63035 -1.517,3.13564 0.1869,2.48181 0.9405,-0.36092 1.2393,0.0319 0.9284,1.22062 -0.5318,2.03368 -2.7713,2.05983 -6.3153,0.0737 -1.375,-0.77059 -2.8375,-1.30546 -3.25,-1.18861 -0.4125,0.11685 -0.75,-0.18509 -0.75,-0.67097 0,-0.48589 -1.0847,-1.09078 -2.4104,-1.34422 -1.7972,-0.34355 -2.6749,0.11964 -3.4499,1.82055 -0.7841,1.72084 -1.7274,2.20738 -3.8396,1.98032 -1.54,-0.16555 -2.8606,-0.92476 -2.9347,-1.68712 -0.074,-0.76236 -0.1866,-1.93449 -0.25,-2.60473 -0.065,-0.68353 -0.8069,-0.95323 -1.6904,-0.61422 -1.0006,0.38396 -1.5044,0.099 -1.3815,-0.78138 0.1064,-0.76218 0.1259,-2.51078 0.043,-3.88578 -0.1453,-2.41745 -0.1988,-2.43591 -1.6185,-0.55887 -1.633,2.15902 -1.7025,1.95816 -1.5378,-4.44113 0.1078,-4.19115 0.012,-4.36774 -1.397,-2.573 -2.0501,2.61158 -2.9704,1.35345 -2.6748,-3.65669 0.245,-4.15192 0.2349,-4.16486 -1.8061,-2.31778 -1.2226,1.10643 -2.103,1.39045 -2.1775,0.70246 -0.069,-0.63525 -0.2375,-1.60499 -0.375,-2.15499 -0.1375,-0.55 -0.3062,-1.64177 -0.375,-2.42616 -0.1039,-1.18573 -3.0629,-1.38508 -17.5526,-1.1825 -11.6622,0.16304 -17.9015,0.63694 -18.8601,1.43247 -2.0315,1.686 -24.2685,-0.90852 -33.5628,-3.91596 -9.9305,-3.21328 -18.1495,-9.51944 -18.1495,-13.92553 0,-1.02534 -0.45,-2.14237 -1,-2.48229 -0.55,-0.33992 -1,-0.1176 -1,0.49404 0,2.29344 -5.0158,8.36817 -9.6015,11.62847 -4.0743,2.89672 -5.5711,3.37749 -10.5155,3.37749 -3.1707,0 -6.043,-0.45 -6.383,-1 -0.3399,-0.55 -2.2819,-1 -4.3156,-1 -2.0337,0 -5.2398,-0.4423 -7.1247,-0.9829 -1.885,-0.54059 -3.6502,-0.75994 -3.9227,-0.48744 -0.2725,0.2725 0.2755,2.11215 1.2178,4.08811 1.6629,3.48721 1.4509,7.38223 -0.4018,7.38223 -0.5018,0 -1.8306,-1.8 -2.953,-4 -1.1223,-2.2 -2.4416,-4 -2.9318,-4 -1.3009,0 -0.6463,3.02466 0.8555,3.95279 0.9887,0.61111 1.0219,1.28049 0.1444,2.92004 -1.5648,2.92386 -2.5621,2.67455 -4.4915,-1.12283 -6.37784,-12.55273 -10.41217,-17.35387 -9.3502,-11.1274 0.26993,1.58257 0.82756,3.6649 1.23919,4.6274 0.96966,2.26731 -0.79796,2.27473 -3.05985,0.0128 -1.64955,-1.64955 -1.70299,-1.52346 -1.05961,2.5 0.66879,4.18242 0.0327,5.21593 -1.97478,3.20847 -0.70493,-0.70493 -1.00393,0.26095 -0.95,3.06883 0.0716,3.72701 -0.12476,4.05863 -2.17131,3.66736 -1.80637,-0.34534 -2.25,0.0238 -2.25,1.87215 0,1.26628 0.45,2.58043 1,2.92035 0.55,0.33992 1,1.04148 1,1.55902 0,1.34564 -3.3776,1.16338 -4.8,-0.25902 -0.66668,-0.66667 -1.2,-0.75556 -1.2,-0.2 0,0.55 0.5325,1.5325 1.18333,2.18333 2.05095,2.05095 -0.11918,2.68578 -3.12052,0.91284 -2.5496,-1.50608 -3.76501,-1.56349 -10.71923,-0.50634 -4.31397,0.6558 -8.18108,1.66886 -8.59358,2.25126 -0.49792,0.70301 -1.07605,0.55475 -1.72007,-0.44109 -0.76494,-1.1828 -1.10967,-0.80722 -1.63021,1.77606 -0.5282,2.62128 -1.03385,3.15745 -2.52993,2.68261 -1.0284,-0.32635 -1.8698,-0.14884 -1.8698,0.39453 0,2.09816 -17.40847,4.53266 -30.82439,4.31066 -9.11173,-0.15077 -10.36584,-0.50449 -9.52817,-2.68742 0.70738,-1.8434 -1.87969,-2.88591 -5.13444,-2.06902 -1.53073,0.38419 -2.72163,1.57574 -3.10617,3.10785 -0.59826,2.38366 -2.40682,3.52294 -2.40682,1.51615 0,-0.53273 -0.675,-0.70959 -1.5,-0.39301 -1.97668,0.75853 -1.97668,-2.01883 0,-3.99551 0.825,-0.825 1.5,-2.18059 1.5,-3.01241 0,-0.83183 0.47339,-1.80499 1.05198,-2.16257 1.59528,-0.98594 9.44467,-0.90101 11.04108,0.11945 1.83906,1.17559 4.35012,1.43257 16.55972,1.6947 l 10.15279,0.21797 3.16124,-3.3079 c 1.73868,-1.81935 2.98027,-3.84435 2.75909,-4.5 -0.46937,-1.39133 -7.2101,-1.753 -10.47591,-0.56209 -1.66041,0.60549 -2.25,0.44938 -2.25,-0.59574 0,-3.14281 7.71341,-4.96979 12.51389,-2.96402 l 3.34515,1.39769 5.82048,-6.72883 c 9.73441,-11.25357 14.52725,-16.40789 21.32048,-22.92853 l 6.5,-6.23917 -2.25,-1.59241 c -1.2375,-0.87582 -2.25,-2.2264 -2.25,-3.00128 0,-0.77488 -1.57923,-4.28193 -3.5094,-7.79344 -4.52906,-8.23961 -6.68551,-15.59985 -6.90842,-23.57937 l -0.17867,-6.39509 -4.45175,-1.27221 c -27.17067,-7.76477 -29.35374,-8.35276 -50.25902,-13.53684 -8.694,-2.15594 -19.494,-4.55872 -24,-5.33951 -4.506,-0.7808 -12.01773,-2.15265 -16.69273,-3.04856 -4.675,-0.8959 -11.0875,-1.69253 -14.25,-1.77029 -3.1625,-0.0778 -5.75,-0.40148 -5.75,-0.71939 0,-0.3179 0.74061,-1.63538 1.64581,-2.92773 2.24833,-3.20995 4.61338,-2.97481 35.85419,3.56466 20.12376,4.2124 21.88409,4.59969 30.99999,6.82039 3.85,0.93789 7.7331,1.85218 8.62911,2.03175 0.896,0.17958 3.79776,1.06279 6.44835,1.96269 5.61551,1.90651 18.54576,4.73534 19.10203,4.17906 0.20976,-0.20975 -1.99482,-1.3608 -4.89906,-2.55789 -2.90424,-1.19708 -6.63043,-2.91275 -8.28043,-3.81259 -4.75017,-2.59055 -5.42022,-2.90968 -16.47259,-7.84563 -5.75993,-2.57236 -11.60993,-4.73311 -13,-4.80166 -1.39007,-0.0686 -2.9774,-0.6002 -3.5274,-1.18143 -0.55,-0.58123 -3.7,-2.11066 -7,-3.39874 -3.3,-1.28808 -8.25,-3.33469 -11,-4.54801 -2.75,-1.21332 -6.35,-2.53366 -8,-2.93408 -1.65,-0.40042 -4.575,-1.41422 -6.5,-2.25288 -3.9544,-1.72282 -5.43806,-2.32138 -12.5,-5.04297 -3.60169,-1.38805 -5,-2.46543 -5,-3.85245 0,-1.58363 0.62143,-1.87917 3.5,-1.66451 1.925,0.14355 4.85,0.91291 6.5,1.70969 1.65,0.79678 7.05,2.84473 12,4.55101 11.2517,3.87848 14.15584,4.96714 23.5,8.80939 4.125,1.69617 11.09999,4.49308 15.49999,6.21536 4.4,1.72228 10.025,4.05104 12.5,5.17502 10.43125,4.73717 21.99322,10.21383 29.11649,13.79185 l 7.6165,3.82576 1.33324,-4.03977 c 2.09229,-6.3397 8.28287,-13.35212 14.22748,-16.11627 4.73064,-2.19967 17.95803,-5.96057 25.02266,-7.11461 1.549,-0.25303 9.199,-2.14198 17,-4.19766 13.4653,-3.54831 14.9193,-3.73109 28.7093,-3.60921 7.9891,0.0706 17.4909,0.60208 21.1151,1.18106 7.0817,1.13129 19.3456,4.89598 24.5829,7.54626 2.7813,1.40746 4.565,1.4899 13,0.60084 13.8039,-1.45494 31.374,-2.19129 56.2557,-2.35764 l 21.4793,-0.1436 8.0207,-6.44858 c 4.4113,-3.54673 8.2456,-6.74932 8.5206,-7.11688 0.275,-0.36756 4.325,-3.29933 9,-6.51505 11.7868,-8.10758 13.0328,-9.13111 12.2161,-10.03554 -0.3938,-0.4362 -0.1978,-0.49669 0.4357,-0.13443 1.4781,0.84522 22.3326,-14.10427 29.9881,-21.49686 3.2231,-3.11237 8.4724,-8.54341 11.6651,-12.06897 7.1001,-7.84032 9.8047,-8.92677 19.4807,-7.8253 7.7703,0.88453 10.5985,2.75138 11.8753,7.83849 0.3336,1.3291 2.0948,4.88807 3.9138,7.90882 1.819,3.02075 3.591,6.91282 3.9377,8.64905 1.0118,5.06613 2.5882,9.65696 3.3151,9.65442 0.3698,-0.001 2.2474,-1.35844 4.1724,-3.01589 8.0736,-6.95145 19.9986,-9.8434 26.0528,-6.31809 5.1981,3.02679 15.13,18.97558 21.694,34.83633 l 2.8969,7 16.9282,0.16787 c 31.7531,0.31488 62.9281,1.97312 62.9281,3.34723 0,0.0925 1.575,0.37274 3.5,0.62283 1.925,0.25008 4.85,0.88163 6.5,1.40343 1.65,0.5218 3.2365,0.83846 3.5255,0.70368 0.289,-0.13477 2.8678,1.4744 5.7307,3.57593 2.9606,2.17329 5.7113,3.50813 6.379,3.09549 0.6886,-0.42557 0.9078,-0.29506 0.5304,0.31572 -0.354,0.57267 0.065,1.62881 0.9298,2.347 2.4486,2.03212 7.3983,9.59778 8.6246,13.18254 0.6092,1.78106 1.5404,3.52471 2.0692,3.8748 0.5289,0.35008 1.1906,3.83619 1.4704,7.74689 l 0.5087,7.11037 -4.39,1.94192 c -2.4145,1.06806 -6.6374,2.24277 -9.3841,2.61047 -2.7468,0.36769 -5.3391,0.87638 -5.7607,1.1304 -0.4215,0.25402 -1.9965,0.67883 -3.5,0.94401 -1.5034,0.26519 -5.2085,1.111 -8.2335,1.87959 -3.025,0.76858 -11.35,2.32938 -18.5,3.46842 -17.985,2.86516 -18.3174,2.91439 -24.5,3.62911 -3.025,0.34969 -5.6575,0.77832 -5.8501,0.95252 -0.784,0.70922 1.0824,2.45203 2.6592,2.48305 0.93,0.0183 2.7545,0.9193 4.0545,2.00224 2.2905,1.90813 2.3104,2.05002 0.6445,4.59252 -1.4162,2.16144 -1.4803,2.77485 -0.3635,3.48245 0.7455,0.47239 1.9179,0.86579 2.6054,0.87421 2.3905,0.0293 1.2313,2.12588 -1.75,3.16515 -1.65,0.5752 -3,1.2068 -3,1.40358 0,1.58495 5.6615,8.11083 8.0328,9.25931 3.9312,1.90392 3.7567,3.9435 -0.2828,3.30569 -1.4094,-0.22255 -0.7524,1.87911 1.1969,3.8284 1.0707,1.07075 3.4064,2.70162 5.1904,3.62416 3.0717,1.58842 3.1439,1.75028 1.362,3.05318 -1.0348,0.75671 -2.2559,1.37584 -2.7134,1.37584 -1.873,0 2.5441,4.89278 5.5129,6.10664 5.775,2.36124 7.3586,5.89336 2.6422,5.89336 -2.7357,0 -2.4102,1.46249 0.7926,3.56105 1.5034,0.98508 3.8613,2.83684 5.2397,4.11501 2.0646,1.91437 2.1997,2.32394 0.7665,2.32394 -0.9569,0 -1.7398,0.4132 -1.7398,0.91821 0,2.05149 1.2968,4.08179 2.607,4.08179 0.7662,0 1.393,0.37396 1.393,0.83102 0,0.45706 1.125,1.4331 2.5,2.16898 2.9972,1.60402 3.2445,3 0.5314,3 -3.0019,0 -1.5397,2.27988 3.5089,5.47102 4.9749,3.14465 5.4207,4.08922 2.3844,5.0529 -3.401,1.07944 -1.6745,1.42782 2.6025,0.52512 2.185,-0.46118 6.7853,-1.13323 10.2228,-1.49343 5.1462,-0.53925 6.25,-0.39355 6.25,0.82493 0,1.2051 0.6034,1.29685 3.25,0.49415 5.5191,-1.67387 22.7243,-1.89718 28.0001,-0.36341 2.6125,0.75951 4.75,1.14953 4.75,0.86673 0,-0.28281 1.35,0.44709 3,1.62199 3.7178,2.64733 3.9297,4.30396 0.3777,2.95349 -2.8315,-1.07654 -2.7715,-1.47432 -0.7611,5.04651 0.8829,2.86351 -1.7641,2.58081 -4.1714,-0.4455 z M 380.4373,363.4729 c 0.8323,-3.31601 -0.1448,-4.92907 -2.0353,-3.36007 -1.9195,1.59299 -2.2354,1.09924 -2.5339,-3.95971 -0.2193,-3.71568 -0.4253,-4.07192 -1.503,-2.59818 -1.1282,1.54291 -1.3987,1.55811 -2.7994,0.15737 -0.8528,-0.85281 -1.5506,-2.03271 -1.5506,-2.62199 0,-1.30463 -1.668,-1.41754 -2.4419,-0.16531 -0.308,0.49837 -1.3975,0.68711 -2.4211,0.41943 -1.151,-0.30097 -2.1089,0.15892 -2.5104,1.20522 -0.4515,1.17656 -0.2337,1.53246 0.7149,1.16842 0.9568,-0.36714 1.2851,0.19693 1.0994,1.88866 -0.1456,1.32668 0.093,2.41215 0.5306,2.41215 0.4374,0 1.0425,0.94528 1.3446,2.10062 0.3021,1.15533 0.9788,1.83518 1.5037,1.51076 0.525,-0.32442 0.8928,0.1928 0.8174,1.14938 -0.1022,1.2962 0.8818,1.89414 3.8629,2.34733 6.9654,1.05892 7.2565,0.99814 7.9221,-1.65408 z m -203.74649,-4.70401 c 0.43654,-0.6875 0.81946,-1.475 0.85093,-1.75 0.18469,-1.61358 3.69209,-7 4.5581,-7 0.56833,0 0.75522,-0.45 0.4153,-1 -0.33992,-0.55 -0.14148,-1 0.44098,-1 0.58246,0 1.05902,-0.675 1.05902,-1.5 0,-0.825 0.3375,-1.50307 0.75,-1.50683 0.93296,-0.008 5.26157,-6.27559 5.2182,-7.55505 -0.0175,-0.51597 -0.73904,-0.0381 -1.60343,1.06188 -1.54606,1.96747 -1.56071,1.9634 -0.90081,-0.25 0.36895,-1.2375 0.33199,-2.25 -0.0821,-2.25 -1.67098,0 -5.38184,4.48712 -5.38184,6.50765 0,2.8307 -1.00004,3.7372 -2.63027,2.38423 -1.03699,-0.86062 -1.44992,-0.24261 -1.95709,2.9291 -0.51774,3.23777 -1.00953,3.94923 -2.52772,3.65686 -1.48679,-0.28633 -1.88492,0.23267 -1.88492,2.45713 0,3.00461 -2.48288,6.11638 -3.18931,3.99711 -0.25324,-0.75974 -0.83819,-0.60387 -1.71969,0.45827 -1.19471,1.43954 -0.85362,1.60965 3.22754,1.60965 2.56076,0 4.91174,-0.54856 5.35713,-1.25 z m 131.74949,-19.8711 c -0.648,-1.04858 -2.4252,-0.20682 -2.4252,1.14873 0,0.50028 0.6725,0.65157 1.4943,0.3362 0.8218,-0.31537 1.2407,-0.98359 0.9309,-1.48493 z m 42.8674,-4.78803 c -1.2141,-1.01342 -1.9266,-2.12345 -1.5834,-2.46673 0.3433,-0.34328 0.099,-0.62414 -0.5425,-0.62414 -1.8778,0 -1.3466,1.63053 1.0833,3.32558 3.0893,2.15498 3.7321,2.01027 1.0426,-0.23471 z m -124.2926,-1.64989 c 0,-0.85746 -0.3791,-1.32467 -0.8426,-1.03825 -1.0385,0.64185 0.5506,-9.98858 1.8585,-12.43242 0.6894,-1.28803 0.5438,-1.9253 -0.5342,-2.33896 -1.3104,-0.50286 -1.7417,0.42587 -1.3962,3.00685 0.047,0.351 -0.3628,0.91517 -0.9105,1.25369 -0.5478,0.33853 -1.8924,2.97482 -2.9881,5.85844 l -1.9921,5.24294 3.1526,0.91318 c 1.734,0.50224 3.2651,0.95376 3.4026,1.00336 0.1375,0.0496 0.25,-0.61137 0.25,-1.46883 z m 363.9847,-32.19098 c -0.01,-0.4125 -0.4515,-1.425 -0.9846,-2.25 -0.7839,-1.21296 -0.9723,-1.06944 -0.9847,0.75 -0.01,1.2375 0.4347,2.25 0.9847,2.25 0.5499,0 0.9931,-0.3375 0.9846,-0.75 z m 62.5154,-6.25 c 0.3399,-0.55 -0.057,-1 -0.882,-1 -0.825,0 -1.7781,0.45 -2.118,1 -0.34,0.55 0.057,1 0.8819,1 0.825,0 1.7781,-0.45 2.1181,-1 z m 5.5,-1 c 1.2926,-0.8354 1.2662,-0.97149 -0.191,-0.98469 -0.9301,-0.008 -1.9691,0.43469 -2.309,0.98469 -0.7822,1.2656 0.5416,1.2656 2.5,0 z m 28.662,-11.9066 c -0.252,-1.59864 -0.9403,-3.73614 -1.5297,-4.75 -0.9919,-1.70639 -1.0738,-1.67617 -1.1019,0.4066 -0.017,1.2375 0.3446,2.25 0.8029,2.25 0.4583,0 0.8333,0.63197 0.8333,1.40439 0,1.06228 -0.4073,1.15 -1.6721,0.36011 -1.1807,-0.73737 -2.2339,-0.70523 -3.5834,0.10935 -1.6421,0.99123 -1.503,1.06078 0.988,0.49404 1.9309,-0.43929 2.6803,-0.30542 2.2438,0.40086 -0.5977,0.967 0.6245,1.95323 2.6671,2.1523 0.4455,0.0434 0.6039,-1.22902 0.352,-2.82765 z m -18.662,-10.37543 c 0,-0.43252 -1.108,-0.63801 -2.4622,-0.45666 -3.6035,0.48257 -3.9305,1.32804 -0.496,1.28238 1.627,-0.0216 2.9582,-0.39321 2.9582,-0.82572 z m -298.2501,-7.4073 c -0.9624,-0.25152 -2.5375,-0.25152 -3.5,0 -0.9624,0.25153 -0.175,0.45733 1.75,0.45733 1.925,0 2.7125,-0.2058 1.75,-0.45733 z m 307.783,-4.09097 -2.861,-2.7197 2.414,3.11822 c 1.3277,1.71502 2.6152,2.93888 2.861,2.71969 0.2458,-0.21918 -0.8404,-1.62238 -2.414,-3.11821 z m -249.033,-10.81357 c -4.6845,-0.75304 -11.2731,-0.84789 -10.8455,-0.15613 0.255,0.4125 3.2495,0.68872 6.6546,0.61382 3.405,-0.0749 5.291,-0.28086 4.191,-0.45769 z m 20.3508,-0.92357 c 0.2654,-0.26541 -1.3924,-0.48256 -3.6841,-0.48256 -2.2917,0 -4.1667,0.42941 -4.1667,0.95424 0,0.92144 6.8705,0.50865 7.8508,-0.47168 z m 24.1492,-8.20103 c 3.575,-2.30555 8.75,-5.50807 11.5,-7.11671 5.159,-3.01781 22.5,-16.82807 22.5,-17.91885 0,-0.33799 -0.9163,-2.50753 -2.0364,-4.8212 -1.12,-2.31367 -2.209,-5.10318 -2.4201,-6.19892 -0.5884,-3.05551 -4.6417,-10.57128 -6.4396,-11.94066 -2.5087,-1.91073 -4.0334,-1.52232 -6.7643,1.72309 -3.1634,3.7595 -13.6524,9.99172 -16.8163,9.99172 -1.7952,0 -4.1285,2.22972 -9.6253,9.19811 -9.2349,11.70718 -10.4298,13.14864 -15.9653,19.25968 -2.512,2.77321 -5.784,6.39221 -7.2711,8.04221 l -2.7039,3 4.2712,0.5 c 2.3491,0.275 8.9961,0.49403 14.7711,0.48672 l 10.5,-0.0133 6.5,-4.19192 z m 44,2.20577 c 0,-2.15477 -2.1785,-7.4873 -3.0588,-7.4873 -0.4748,0 -1.6683,0.83514 -2.6522,1.85587 -0.9839,1.02073 -3.081,2.68322 -4.6601,3.69441 -2.5791,1.65149 -2.6808,1.90763 -1,2.51771 3.1627,1.14797 11.3711,0.72879 11.3711,-0.58069 z m 42.6721,-0.82602 c 0.8175,-0.81753 -6.1439,-12.88444 -9.5151,-16.49322 -1.5916,-1.70383 -2.6155,-3.38799 -2.2754,-3.74257 0.3402,-0.35459 -2.0816,-0.34962 -5.3815,0.011 -6.9921,0.76415 -20.984,6.85961 -20.234,8.81476 0.2634,0.6868 1.0721,3.89944 1.797,7.1392 l 1.3181,5.89049 16.8665,-0.5309 c 9.2766,-0.29199 17.1176,-0.78194 17.4244,-1.08879 z m -15.672,-29.10284 c 0,-0.20416 -0.9,-0.13585 -2,0.15181 -1.1,0.28766 -2,0.93636 -2,1.44156 0,0.50747 0.895,0.43953 2,-0.15181 1.1,-0.5887 2,-1.23741 2,-1.44156 z m 4,-7.05079 c 0,-0.0875 -1.2343,-1.24996 -2.7429,-2.58334 -1.9978,-1.76582 -2.2689,-1.85903 -0.9978,-0.34316 0.9598,1.14464 1.519,2.30713 1.2428,2.58333 -0.2762,0.2762 0.1728,0.50219 0.9979,0.50219 0.8249,0 1.5,-0.0716 1.5,-0.15902 z m -49.5769,-23.74981 c -0.661,-2.08263 -0.5769,-2.13599 1.1826,-0.75 1.7687,1.39324 1.7983,1.37017 0.4469,-0.34814 -1.3366,-1.69937 -1.5401,-1.71354 -2.6578,-0.18499 -0.6657,0.91043 -1.8144,1.57274 -2.5526,1.47182 -0.7383,-0.10092 -2.0173,-0.0709 -2.8423,0.0666 -1.2131,0.20229 2.1057,1.17689 6.3174,1.8552 0.4496,0.0724 0.4972,-0.87733 0.1058,-2.11052 z m -8.9078,0.21738 c 0.3483,-0.56362 0.2624,-0.96033 -0.191,-0.88158 -2.0157,0.35015 -2.4769,-0.20489 -1.3244,-1.59364 1.9521,-2.35209 0.5331,-1.75433 -1.595,0.67189 -1.0477,1.19455 -1.3735,1.86221 -0.7241,1.48369 0.6495,-0.37851 1.4636,-0.23086 1.8091,0.32811 0.7921,1.28165 1.2292,1.27982 2.0254,-0.008 z"
         style="display:inline;fill:#ffffff;filter:url(#filter4343)" />
    </g>
  </g>
</svg>
